
<svg xmlns="http://www.w3.org/2000/svg" style="display: none;">

  <symbol id="notdef" viewBox="0 0 24 24">
    <path d="M33 0v666h265v-666h-265zM66 33h199v600h-199v-600z" />
  </symbol>

  <symbol id="star-outline" viewBox="0 0 24 24">
    <path d="M12 2l3.09 6.26L22 9.27l-5 4.87 1.18 6.88L12 17.77l-6.18 3.25L7 14.14 2 9.27l6.91-1.01L12 2z" fill="none" stroke="currentColor" stroke-width="2" stroke-linecap="round" stroke-linejoin="round"/>
  </symbol>

  <symbol id="numbersign" viewBox="0 0 24 24">
    <path d="M1435 983q25 14 31 14q3 0 3 -3l-1 -2v-2q-48 -164 -60 -235q-14 -77 -14 -138q0 -71 25 -143q15 -42 15 -67q0 -19 -7 -47q-14 -55 -32.5 -167.5t-25.5 -187.5q-3 -26 -8 -24q-5 5 -5 218v214l-11 34q-15 44 -15 93q0 22 3 41q9 58 9 108q0 18 -3 18q-1 0 -31 -67 q-26 -64 -30 -64q-2 0 -2 10q0 56 28 172q15 67 15 71q0 1 -8.5 -2t-23 -9t-30.5 -14q-53 -25 -83.5 -32.5t-97.5 -12.5q-42 -2 -65 -2q-83 0 -192 14q-44 6 -44 9q0 4 37 4q77 2 194 22q102 17 183 48.5t180 91.5q21 13 66 37zM71 954q0 1 -1 2v2q0 2 2 2q4 0 22 -11 q55 -32 126 -51.5t134 -19.5q73 0 141 31q36 16 58 16q15 0 78 -10q159 -26 254 -26q54 0 107 4q77 5 98 5h4q6 -6 -122 -37q-99 -24 -260 -29q-106 -4 -163 -13t-128 -35q-44 -16 -73 -16q-26 0 -63 12q-48 15 -65 16l-22 3v-29q0 -52 25 -119l9 -22l-19 -36 q-22 -43 -28 -68.5t-6 -69.5q0 -38 2.5 -52t14.5 -48q25 -67 31 -81l15 -34l-18 -54q-17 -51 -23 -77q-3 -13 -3 -39q0 -45 6 -63q4 -9 -1 -9q-4 0 -13 29q-10 33 -14 109q-3 70 -11.5 106.5t-50.5 155.5q-34 96 -34 121q0 15 15 87q17 80 17 145q0 82 -26 157 q-14 40 -15 46zM55 383q-3 6 0 5l7 -7q13 -14 40.5 -77t36.5 -98q5 -17 5 -71q0 -59 -5 -109l-6 -56l15 -31q37 -80 37 -189v-30l48 3q54 4 90 13q42 11 58 11q15 0 117 -41q129 -52 183 -59q1 0 8 -0.5t11 -0.5q90 0 199 14q29 4 45 4q7 0 7 -2q0 -1 -1 -2q-5 -5 -144 -30 q-61 -11 -96 -11q-47 0 -166 28q-94 22 -153 22q-14 0 -36 -2q-29 -4 -137 -36t-111 -33q-33 -7 -39 -7q-9 0 -9 6q0 5 6 17q15 30 27 89t12 104q0 68 -25 116q-17 34 -17 41q0 10 10 38q24 69 24 158q0 95 -41 223zM1396 -64q9 38 13 38t4 -67q1 -76 11.5 -129t38.5 -124 q24 -57 24 -69q0 -6 -7 -6q-10 0 -48 15q-56 23 -83 27.5t-101 4.5q-81 0 -147 -10q-59 -9 -63 -9l66 27l78 28q66 21 157 28l37 3l-3 58q-1 11 -1 30q0 51 24 155z" />
  </symbol>


  <symbol id="dollar" viewBox="0 0 24 24">
    <path d="M800 1031q11 17 15 17t42 -54q64 -91 105.5 -133.5t137.5 -114.5q64 -49 100 -81t104 -104q74 -79 189 -147q38 -23 45.5 -29t7.5 -16t-4 -13.5t-24 -12.5q-21 -10 -66 -38.5t-45 -32.5q1 -1 5.5 -0.5t9.5 2.5q29 9 60 9q5 0 5 -1q0 -2 -26 -11q-28 -9 -93 -52 q-236 -153 -300 -210q-4 -4 -4 -5t4 1.5l12 7.5t18 12q35 24 112 69.5t139.5 80t62.5 31.5t-114 -93q-165 -130 -236 -214q-83 -97 -118 -158q-4 -6 -8 -13t-6 -10l-3 -4q-1 0 0 3.5t3 9.5t5 12q16 34 16 59q0 4 -1 4q-5 0 -49.5 -65.5t-70.5 -110.5q-24 -40 -27 -40 q-1 0 -53 76q-89 133 -184.5 229.5t-234.5 192.5q-42 31 -42 32h1q8 0 81 -39t108 -62q64 -42 157.5 -122.5t150.5 -141.5l25 -27l27 30q62 68 62 71t-36 -31q-25 -23 -25 -20q0 8 58.5 72.5t98.5 99.5q41 37 41 42q1 5 113 120t150 149q55 51 129 90q26 14 26 19 q-1 3 -74 49q-103 66 -155 111q-16 15 -12 15q1 0 4 -1l10 -3q10 -3 21 -6t14 -3h1q0 4 -45.5 49.5t-68.5 64.5q-27 23 -76 57q-122 86 -221 193q-27 29 -30 29t-39 -27q-49 -36 -127.5 -82.5t-91.5 -46.5h-1q-1 1 -1 2q0 4 34 28q32 23 60 53q19 20 70.5 86.5t71.5 96.5z M483 657q11 8 14 8t3 -4q0 -5 -6 -19q-21 -51 -98.5 -124t-162.5 -124q-39 -23 -39 -26t16 -14q28 -20 82.5 -82t54.5 -75q0 -1 -4.5 2t-12 9t-16.5 14q-30 25 -56 43q-33 21 -95 47t-94 32q-10 2 -13 4.5t-2 9.5t10 12t42 19q41 16 78 37q30 17 71 44t46 33q4 5 2 6l-7 -2 q-38 -10 -68 -10q-8 0 -10 2q-4 5 -2 7q3 3 79 40q133 66 188 111zM124 281q-52 26 -50 28q8 0 61.5 -21t90.5 -39q82 -39 145 -99q14 -13 34.5 -36.5t34.5 -41t12 -17.5t-124 80q-116 78 -116 84q0 1 1 2q5 4 3 7t-16 12q-17 13 -76 41z" />
  </symbol>


  <symbol id="ampersand" viewBox="0 0 24 24">
    <path d="M703 1003q20 2 27 2q16 0 35 -3l21 -3q-33 -17 -76 -37l49 -3q119 -7 245 -70.5t206 -155.5q26 -30 59 -82.5t33 -62.5q0 -3 -5 4t-14 20q-12 19 -27 35t-20 16q-1 0 -1 -2q0 -8 47 -102q67 -138 90 -196.5t27 -109.5q0 -3 0.5 -10t0.5 -11q0 -86 -12 -106q-4 -8 -4 -2 q0 1 -1 8.5t-3 20t-3 23.5q-10 70 -33.5 118t-92.5 141q-46 62 -62 103q-27 65 -46 94.5t-73 87.5q-95 102 -204 136q-25 8 -42.5 9.5t-75.5 1.5q-86 0 -124 -9q-259 -58 -387 -255q-56 -85 -97 -206l-22 -56q0 4 5 53.5t5 55.5l-11 -20q-27 -56 -42 -101q-16 -50 -19 -50 q-4 0 -4 24q0 22 5 64q9 80 45 176.5t85 169.5q30 45 84.5 95t111.5 84q73 43 159.5 73t160.5 38zM1237 376v1q9 0 57 -120q44 -110 44 -202q0 -54 -13 -105q-15 -53 -17 -55q-2 0 -2 30v23v25q0 35 -2 55l-4 23l-5 -14q-5 -12 -24 -51q-105 -214 -334 -323 q-137 -65 -260 -65q-84 0 -169 26q-36 11 -82 28.5t-46 21.5q0 2 9 2q6 0 22 -2q20 -2 39 -2q39 0 67 5q5 2 5 3q0 4 -37 23q-214 110 -294 299q-12 28 -28.5 81t-16.5 64q0 7 2 7q5 0 19 -43q34 -104 111 -181q87 -87 207.5 -136.5t240.5 -49.5q54 0 100 10 q185 37 305.5 178.5t120.5 315.5q0 35 -6 71q-9 54 -9 57zM76 131l3 20l13 -9q9 -7 10.5 -13t1.5 -31q0 -82 50 -151q11 -16 44 -53.5t42 -45.5q8 -8 8 -12t-34 23q-41 32 -80 78t-49 74t-10 94q0 19 1 26z" />
  </symbol>


  <symbol id="asterisk" viewBox="0 0 24 24">
    <path d="M658 937q0 2 5 0q11 -4 81.5 -19.5t104.5 -21.5q71 -12 123 -12q61 0 119 16q32 8 55 8q17 0 22 -4t5 -25q0 -32 23.5 -107.5t52.5 -134.5q57 -118 142 -218q36 -44 36 -45t-12.5 9.5t-30.5 26.5q-52 47 -90 94.5t-88 129.5q-51 83 -79 113q-12 12 -15 19.5t-5 27.5 q-4 29 -9 36q-6 9 -40 9q-19 0 -46 -3q-78 -10 -120 -32l-27 -15l-30 11q-57 19 -179 28l-60 4l-72 34q-72 34 -76 38q-1 1 -1 2t4 1q12 0 92 -14q76 -14 147 -17l64 -2l-18 8q-14 7 -46 29.5t-32 25.5zM339 897q0 7 4 7t63 -27q131 -60 264 -77q50 -6 50 -9q0 -8 -111 -8 q-104 0 -182 25q-20 7 -33 7h-2q-2 -2 -2 -18q0 -38 -24 -123t-50 -138q-15 -31 -24.5 -44t-31.5 -34q-31 -29 -34 -29q-1 0 4 14t14 34q49 115 71 223q7 32 15.5 104t8.5 93zM235 608q10 28 12 28t2 -6q0 -1 0.5 -4t0.5 -5q0 -54 -18 -108q-7 -20 -21 -51q-10 -20 -35 -55 t-36 -45q-9 -9 -9 -14q0 -8 19.5 -50t37.5 -73q39 -63 61 -97q89 -137 111 -190t36 -166q2 -16 -1 -16q-4 0 -9 16q-36 109 -92 218q-66 131 -200 304q-40 51 -40 60q0 8 34 34q92 73 147 220zM1232 541l1 1q2 0 44 -63q41 -63 75.5 -95t107.5 -75q43 -25 43 -47 q0 -10 -11 -23q-8 -8 -39 -30q-60 -41 -100 -102q-22 -34 -56.5 -108.5t-51.5 -124.5q-19 -58 -23 -58q-1 0 -1 9q0 14 1 24q5 77 42 167q9 21 15.5 40.5t9.5 27t12 22.5t27 40q15 21 15 25l-1 1q-2 0 -12 -10q-6 -7 -29 -24q-12 -9 -15 -9q-2 0 -2 1q0 6 25 47 q33 54 78 109l11 13l-12 15q-1 1 -50 55q-43 47 -56 70q-12 19 -30 58t-18 44zM1240 50q23 23 25 23q4 0 -15 -29q-34 -60 -50 -120q-8 -30 -8 -140q0 -109 -3 -109q-5 0 -43 19q-87 43 -212 43q-62 0 -146 -9q-147 -18 -147 -24q0 -4 -9 -4q-8 0 -61 -17q-49 -15 -53 -15 l48 25q22 10 37 16q21 8 36 16q35 19 121 33t159 14q22 0 32 -1q84 -5 201 -39h2q6 0 6 36q0 37 -4 37h-1q-4 -2 -4 -31q0 -27 -4 -27q-12 0 -12 77q0 43 6 65q21 78 99 161zM390 -67v33l15 -61q9 -39 29 -109t22 -70q12 3 26 8q24 8 66 17t58 9q18 0 18 4t42 4q43 0 43 -3 t-35 -10q-59 -12 -154 -58q-69 -33 -76 -33q-3 0 -6 3q-5 7 -21 75.5t-21 108.5q-6 54 -6 82z" />
  </symbol>


  <symbol id="plus" viewBox="0 0 24 24">
    <path d="M837 656q18 18 26 18q5 0 6 -3t-1 -16q-2 -19 1 -19q1 0 -1.5 -7.5t-8.5 -21t-14 -28.5q-52 -104 -64 -183q-2 -10 -2 -36q0 -21 1 -32q3 -32 3 -45q0 -1 -0.5 -8.5t-1.5 -19.5t-1 -23l-3 -45l15 64q20 88 23 99q15 56 19 56q1 0 1 -5q0 -13 -4 -37q-8 -48 -17 -209 l-1 -29h62q15 0 27.5 0.5t22 1t20.5 2t16.5 2t18 3t16.5 3.5t19.5 4.5t20.5 4.5q31 7 62.5 22t148.5 77q70 37 75 37q6 0 -17 -23q-22 -22 -22 -27q0 -4 -20 -19q-45 -33 -82 -88q-39 -58 -86 -85q-20 -12 -54 -27t-49 -18l-13 -3l13 8q27 17 27 35q0 8 -8 13q-13 7 -57 13 t-80 6q-18 0 -24 -1q-29 -4 -29 -17q0 -7 2 -12q2 -10 2 -15q0 -16 -10 -47q-11 -40 -11 -47q0 -3 6 -3q12 0 27 3q17 3 24 3q10 0 25 -6q62 -24 164 -24q66 0 116 12q72 17 157.5 54.5t118.5 67.5q24 22 24 16q0 -8 -36.5 -44t-72.5 -64q-54 -41 -70.5 -61t-16.5 -44 q-1 -17 -4 -17q-4 3 -4 15q0 18 8 36q3 8 4.5 13.5t0.5 5.5q-6 0 -30.5 -21.5t-38.5 -39.5q-18 -22 -24 -48q-8 -34 -24 -34q-6 0 -14 6q-40 32 -116 57l-66 22l-72 1q-129 3 -171 4q-24 1 -63 1q-71 0 -105 -11t-88 -50q-26 -19 -47 -19q-15 0 -41 9q-20 8 -48 8 q-24 0 -39 -5l-17 -5l-48 29q-168 104 -168 111l8 -1q8 -2 21 -6t28 -8q92 -28 179 -34q44 -2 52 -2q23 0 42 3q30 5 61.5 14.5t31.5 13.5q0 1 -42 13q-89 27 -89 32q0 1 1 1q21 0 66 -7q105 -15 218 -15q85 0 89 10q4 8 4 23q0 45 -27 89q-7 10 -13.5 14t-29.5 9 q-25 6 -50 6q-8 0 -44 -2q-94 -4 -128 -29l-19 -14l-90 43q-76 37 -98 46q-10 3 -10 7q3 4 16 2l12 -2q-1 1 -7 5q-3 2 -3 3q0 2 17 2q14 0 179 -8q126 -6 179 -6h66v10q0 12 11 32q20 42 20 73q0 27 -14 61q-7 15 -7 29t7 43q3 12 3 20q0 16 -25 20h-6q-38 0 -65 -38 q-15 -20 -19 -20q-1 0 -1 3q0 4 1 8q9 39 61 92q75 77 75 90q0 1 -1 1q-4 0 -30 -7.5t-29 -7.5h-1l3 2q2 3 7.5 6.5t12.5 7.5q25 14 71.5 49.5t46.5 39.5t10 8q15 8 31 25z" />
  </symbol>


  <symbol id="hyphen" viewBox="0 0 24 24">
    <path d="M474 734q0 3 -21 15.5t-41 24.5l-21 11q15 0 59 -22q76 -35 137 -118q39 -53 39 -60v-1q-2 0 -11 10q-47 54 -78 77q-26 20 -57.5 33t-53.5 13h-4l-10 -1l13 -5q34 -14 34 -15h-1q-4 0 -19 4q-17 5 -63 6q-8 0 -18.5 0.5t-13.5 0.5q-15 0 -37 -7q-53 -17 -98 -62 q-19 -19 -25 -28t-19 -34q-31 -60 -36 -111q-2 -22 -2 -32q0 -59 21 -104q23 -49 71.5 -90t104.5 -58q50 -15 72 -15h2l-7 5q-6 4 -15 8q-44 23 -67 49q-8 9 -17 23.5t-7 16.5l13 -10q13 -9 26 -19t15 -11q32 -22 70 -32l-2 35q-2 35 -6 37q-1 1 -3 1q-7 0 -33.5 9t-40.5 16 q-24 13 -43.5 36t-27.5 47q-4 11 -5 11q-2 0 -2 -12q0 -43 10 -70q4 -15 2 -15q-4 2 -15.5 25t-14.5 34q-4 13 -4 35q0 27 6 48q20 67 63 104q9 9 29 22.5t23 13.5q1 -1 -17 -26q-31 -44 -43 -78q-5 -16 -5 -32v-21q1 -32 8 -47q6 -14 20 -26t40 -25.5t40 -14.5l15 -1v21 q0 23 -2 28.5t-12 7.5q-13 4 -20 10t-9.5 4.5t-10.5 -16.5l-8 -11q0 2 22 64q32 87 53 161q6 24 10 32q2 0 2 -148q0 -150 2 -152h2q19 0 56 22q32 19 46 47q6 13 6 45q0 30 -8 53q-14 36 -45 79q-15 22 -14 23h1q4 0 26.5 -17t36.5 -31q55 -57 58 -128v-13q0 -15 -3 -28 q-2 -10 -14 -34.5t-15 -24.5v2q0 5 4 18q8 30 8 55q0 2 -0.5 6t-0.5 5l-2 12l-7 -20q-24 -69 -109 -97q-23 -7 -24 -11q-1 -2 -1 -5l2 -32q2 -37 7 -39h1q17 0 57 40q32 32 39 52q2 4 4 2q1 -1 1 -6q0 -33 -12 -76q-24 -97 -85 -107l-10 -2l2 -17q2 -18 2 -51q0 -34 2 -34 q3 0 12 25q25 65 64 127q26 40 85 100q36 37 36 40q-1 0 -2 -1q-71 -41 -80 -41h-2q-2 0 19.5 15t52 35t54.5 35q28 17 67 36q101 47 131 47q3 0 3 -2q0 -4 -39 -25q-60 -34 -99.5 -63.5t-83.5 -73.5q-75 -75 -119 -142q-92 -140 -112 -203q-5 -18 -8 -18t-6 140l-2 72 l-10 3q-84 31 -125 52t-75 52q-19 17 -20 16t4 -13.5t4 -13.5q-7 0 -34 31q-46 53 -57 170q0 6 -1 16t-1.5 18t-0.5 12q0 17 -2 19q-4 0 -11 -80q-1 -10 -1 -33q0 -53 9 -102q2 -9 3.5 -18.5t2.5 -13.5t1 -6l-1 -2q-1 0 -7 13q-37 74 -37 167q0 97 40 180q36 75 97.5 126.5 t142.5 60.5q8 1 27 1q60 0 104 -14q4 -2 7 -2t3 1z" />
  </symbol>


  <symbol id="zero" viewBox="0 0 24 24">
    <path d="M408 699q14 16 16 16q0 -4 -21 -30.5t-40 -46.5q-21 -21 -58 -63t-53 -59q-49 -53 -66 -88q-21 -43 -21 -83q0 -41 15.5 -68t37.5 -27q10 0 23 8q11 8 19 8t14 -1l20 -2l10 11q11 11 19 12q24 4 36 15q11 9 24 9q11 0 32 -6q32 -9 43.5 -17.5t19.5 -29.5q3 -10 18 -31 t18 -26q4 -8 10 -28t6 -27q0 -11 -5 0q-2 4 -4 12q-18 66 -63 87q-30 12 -57 12q-22 0 -32 -10q-10 -8 -15 -8q-7 0 -52 -23.5t-68 -38.5q-37 -25 -66 -25h-9q-47 4 -75 47t-30 98q-1 10 -1 26q0 29 10 43q7 10 11 25q6 30 38 62q37 37 98 75q31 19 53 35q38 28 82 69.5 t63 67.5zM465 546q8 9 11 10.5t10 0.5q25 -4 57 -25q13 -9 50.5 -42.5t50.5 -48.5q4 -4 18 -16q8 -6 14 -19q1 -2 7.5 -16t10.5 -22q39 -73 56 -170q4 -20 4 -52q0 -33 -4 -52q-8 -38 -28 -81.5t-37 -60.5t-32.5 -22t-51.5 -5q-40 0 -69 10q-57 19 -131 54q-62 30 -102 35 q-18 2 -25 2q-102 0 -167 -106q-17 -29 -21 -29q-1 0 -1 5v7q5 46 50 98q17 20 59.5 52t64.5 41q10 5 27 5q30 0 61 -17q54 -27 69 -42q5 -6 16 -9q11 -4 29 -18q39 -30 49 -33t28 0q3 0 57 8q38 5 48.5 8.5t18.5 13.5q21 25 30 52q4 9 5 9q4 0 7.5 21t3.5 41 q0 51 -13 109.5t-34 100.5q-18 36 -39 58t-68 53q-48 32 -74 32q-25 0 -44 -18q-11 -11 -21 -16q-6 -2 -20 -23.5t-18 -24.5q-26 -20 -40 -20h-1q-1 0 2 5t7.5 10.5t7.5 8.5t21 32q17 28 49 61q37 39 42 45z" />
  </symbol>


  <symbol id="one" viewBox="0 0 24 24">
    <path d="M159 707q0 5 17 5q14 0 54 -2q42 -2 58.5 -12.5t33.5 -43.5q35 -68 46 -150q2 -20 2 -36q0 -45 -7 -62q-21 -59 -105 -155q-130 -149 -130 -216q0 -15 7 -20t20 -5q12 0 22 5q19 10 39.5 30.5t30.5 40.5q7 15 12 10q1 -1 1 -4q0 -26 -22 -72q-17 -36 -63 -81 q-30 -28 -45 -36q-18 -9 -32 -9q-37 0 -43 43q0 1 -0.5 4.5t-0.5 5.5q0 35 11 81q9 41 42 92q21 31 84.5 151t82.5 163q33 80 33 130q0 11 -1 16q-8 50 -42.5 77.5t-93.5 42.5q-11 3 -11 7zM436 444q-2 21 3 21q4 0 5.5 -3t3 -9t1.5 -7q5 -19 34 -40q42 -31 42 -63 q0 -14 -10 -25q-20 -22 -33 -22q-1 0 -2 1q-2 2 3 16q6 13 6 23q0 18 -27 44q-14 14 -19 25.5t-7 38.5z" />
  </symbol>


  <symbol id="two" viewBox="0 0 24 24">
    <path d="M159 738l1 2q6 -2 18 -15q29 -32 89 -121l17 -25.5t18.5 -27t11.5 -15.5q10 -13 37.5 -41.5t51 -51t23.5 -19.5q0 5 2 5q4 0 21 -29q86 -142 95 -249q0 -3 0.5 -9t0.5 -8q0 -23 -12 -42q-72 -131 -116 -192q-45 -62 -63 -62q-8 0 -19 11q-8 8 -41 52q-5 6 -22 56 q-28 85 -51.5 117.5t-58.5 36.5q-14 1 -28 -6q-22 -11 -58 -63q-21 -28 -22 -28q-3 0 -1 20q2 31 20.5 69t37.5 51q21 14 56 14q42 0 75 -20q38 -22 68 -79q15 -28 25 -44q6 -8 19.5 -14.5t23.5 -6.5q20 0 30 18q5 10 11 16q8 9 15 45q12 59 12 117q0 26 -3 46 q-4 24 -10.5 40.5t-30.5 62.5q-33 63 -81 135q-23 35 -43.5 64.5t-28.5 41.5q-15 23 -37.5 59t-37 61.5t-15.5 27.5zM592 519q2 2 12.5 8.5t14.5 6.5q1 0 1 -1q0 -2 -7 -23q-6 -18 -6 -35v-12l9 5q16 8 47 8q9 0 11 -1q7 -4 20.5 -20.5t15.5 -23.5q5 -20 -4 -24q-4 -2 -24 9 q-19 10 -28 10q-10 0 -25 -14q-28 -25 -49 -25q-16 0 -25.5 11t-9.5 30q0 14 6 20q7 7 7 11t14 29t20 31z" />
  </symbol>


  <symbol id="three" viewBox="0 0 24 24">
    <path d="M473 748q16 11 17 10q-8 -17 -18 -38q-51 -103 -51 -205q0 -25 1 -38q3 -44 13.5 -121t14.5 -86q3 -9 6 -27q8 -44 31 -113q13 -36 13 -64q0 -35 -26 -80q-72 -121 -134 -139q-9 -3 -16 -3q-14 0 -34 19q-16 16 -24 20q-16 8 -77 16q-39 5 -53.5 11t-14.5 17t17 37 q43 74 57 230q2 30 2 34q0 13 -3 34q-8 60 -34 95t-77 56q-11 4 -28 21l10 2q3 1 14 1q39 0 63 -7q46 -12 89 -50t61 -83q7 -16 7 -47q0 -44 -33 -145q-26 -79 -47 -103q-11 -13 -11 -15q0 -6 43 -6h6q30 1 70 31q26 19 34.5 40t10.5 68v21q0 33 -6 75q-10 83 -10 204 q0 38 1 51q10 132 35 183q29 59 81 94zM534 715q4 2 10 2q15 0 28 -7q21 -11 54 -31.5t37 -24.5q9 -11 1 -22q-4 -6 -17 -6q-14 0 -38 8q-15 6 -23 6q-11 0 -11 -19q0 -11 1 -18q4 -34 22 -72q12 -24 12 -39q0 -12 -9 -12q-5 0 -13 5q-10 6 -30.5 27.5t-30.5 36.5 q-23 35 -23 69q0 24 10.5 58t19.5 39z" />
  </symbol>


  <symbol id="four" viewBox="0 0 24 24">
    <path d="M252 741q11 25 12 25q1 -1 1 -2q0 -3 -5 -33q-4 -27 -22 -116q-20 -98 -24 -126.5t-4 -68.5q0 -69 -7.5 -97t-29.5 -44q-23 -16 -32 -33t-9 -43q0 -33 12.5 -58t28.5 -25q15 0 37 24q24 26 66.5 98t50.5 99q2 5 4 5q3 0 1 -4q-6 -23 -6 -87q0 -77 7 -115q14 -82 89 -205 q60 -99 60 -113v-1q-2 0 -10 11q-19 23 -35 44t-45.5 62.5t-46.5 64.5l-71 97q-1 1 -17 -9q-42 -28 -82 -28q-33 0 -64 18q-57 35 -57 113q0 59 36 101q43 51 53 74q21 43 30 111q6 43 30 122t49 139zM435 691q5 6 11 6q7 0 17 -8q10 -9 18 -38q8 -30 21 -41q11 -9 11 -12 q0 -2 -16 -8q-12 -3 -33 -15q-19 -11 -24 -9t-11 17t-6 28q0 16 4.5 45.5t7.5 34.5z" />
  </symbol>


  <symbol id="five" viewBox="0 0 24 24">
    <path d="M331 713q6 2 15 2h10l-9 -16q-26 -47 -39 -159q-8 -69 -8 -111q0 -105 54 -188q16 -26 20 -37q3 -10 -2 -17q-8 -10 -18.5 -12.5t-44.5 -2.5l-42 -1q-15 15 -21 34q-3 9 -24 55q-27 58 -49 146l-13 50l-4 -18q-13 -56 -13 -84q0 -31 34 -78q46 -62 65.5 -117.5 t19.5 -127.5v-23q-2 -46 -9 -92t-13 -46q-10 0 -14 68q-5 101 -34.5 171.5t-89.5 133.5q-32 33 -40.5 48.5t-8.5 38.5q1 32 15.5 73t32.5 61q24 27 55 27q11 0 18 -4q28 -15 44 -92q9 -50 23 -87q7 -18 16.5 -35.5t13.5 -18.5h2q4 0 4 7q0 8 -6 29q-36 133 -43 177 q-4 28 -4 39q0 33 14.5 66.5t49.5 86.5q34 52 43 54zM468 570q18 14 24 1q2 -4 -7 -17t-11 -22q-4 -15 -4 -51q0 -44 6 -89q0 -1 0.5 -2.5t0.5 -2.5q0 -12 -12 -12q-16 0 -31 13q-10 8 -16 30q-6 21 -19 36q-27 33 -27 48q0 3 2 5h1q11 0 31 -17q9 -8 11 -8.5t5 3.5t2 18 l-2 13l13 13q17 17 20 24q6 12 13 17z" />
  </symbol>


  <symbol id="six" viewBox="0 0 24 24">
    <path d="M440 718q22 19 22 12q0 -3 -19 -22q-104 -109 -137 -208q-8 -23 -8 -33q0 -4 2 -4h1q86 38 167 38q94 0 119 -48q6 -10 6 -31q0 -28 -8 -50q-14 -41 -57 -87q-36 -37 -79 -64.5t-147 -80.5q-92 -47 -99 -55q-9 -9 -9 -14t45 -43q50 -43 81 -91q40 -62 40 -85q0 -3 -2 -3 h-1q-2 1 -19 27q-95 151 -203 186q-36 11 -40 19q0 1 -0.5 1t-0.5 1q0 9 165 87q79 37 130 68t77 64t39 83q6 23 6 39q0 26 -14 35q-9 6 -30 6q-59 0 -131 -31q-73 -31 -130 -97q-22 -24 -23 -24t-1 2q0 5 16 53q42 127 111 217q58 74 131 133zM100 670q10 5 14 0q2 -4 2 -7 q0 -13 -13 -27q-11 -14 -11 -26q0 -6 3 -20.5t4 -22.5q3 -18 10 -28t7 -20q0 -21 -22 -21q-32 0 -32 27q0 6 1 9t1 8q0 6 -6 23q-5 17 -5 28q0 16 9 34q16 32 38 43z" />
  </symbol>


  <symbol id="seven" viewBox="0 0 24 24">
    <path d="M315 746q7 7 12 5q6 -4 11 -52q12 -117 75 -201q32 -43 74 -72q30 -21 41.5 -37.5t24.5 -57.5t29 -63t16 -32q0 -9 -10 -9q-23 0 -47 29q-10 11 -29 21q-10 4 -54 28.5t-59 29.5q-17 6 -22.5 6.5t-6.5 -4.5q0 -6 11 -25t23 -33q27 -30 27 -48q0 -8 -5 -18 q-13 -28 -82 -32q-31 -2 -40.5 -6t-16.5 -18q-17 -32 -17 -99q0 -30 5 -42q23 -67 91 -73h4q27 0 50 19q8 6 28.5 32t24.5 35q4 10 7 10q5 0 5 -20q0 -33 -38 -91q-28 -43 -60 -57q-17 -8 -53 -8q-35 0 -54 7q-42 16 -71 51.5t-38 79.5q-3 17 -3 42q0 42 7 66q14 49 46 82 t72 40q45 7 57 19q8 8 8 12t-21 27q-34 37 -37 70v9q0 24 16 40l11 11q13 0 37 -1.5t37 -2.5l-10 13q-88 115 -90 247q0 58 14 71zM147 644q7 9 16 9q12 0 17 -25t29 -56q21 -26 21 -48q0 -21 -18 -48.5t-36 -35.5q-9 -4 -18 -2q-8 2 -23.5 16t-26.5 30l-11 17l-2 -11 q-5 -24 -20 -16q-20 10 -20 37q0 4 2 12q12 35 51 35q27 0 40 -28q4 -8 14 -22q6 -7 15 -7q14 0 14 12q0 8 -27 41q-24 28 -27 51q0 1 -0.5 4t-0.5 5q0 17 11 30z" />
  </symbol>


  <symbol id="eight" viewBox="0 0 24 24">
    <path d="M484 756q14 2 31 2l17 -1l19 -18l18 -19v-31q0 -30 -6 -54q-8 -38 -69 -191q-24 -61 -24 -63q0 -3 -9 -25q-12 -28 -15 -28q-1 0 -1 3q0 8 7 32q1 3 17 75q7 33 7 81q0 73 -15 85q-6 5 -17 5q-26 0 -50 -24q-36 -38 -64 -196q-6 -36 -6 -85q0 -43 5 -65q14 -48 56 -97 q11 -13 9 -15q-8 -8 -107 -33q-59 -14 -76 -34q-19 -24 -19 -58q0 -11 2 -14q3 -5 9 -5q10 0 24 10q14 8 16 8t2 -2q0 -4 -10 -26q-7 -13 -20 -48q-14 -41 -30 -52q-10 -7 -19 -7q-12 0 -12 12q0 5 1 8q5 18 5 26q0 9 -4 20q-10 33 -10 59q0 22 6 46q20 84 136 101l25 4 q1 0 -1 2.5t-6 7t-8 8.5q-52 55 -52 171q0 33 4 62q11 97 55 183q31 62 86 120q29 30 48.5 42.5t44.5 17.5zM122 659q14 9 21 -8q6 -15 35 -102.5t29 -91.5q0 -2 -1 -2q-2 0 -36 58q-32 57 -37 57q-1 0 -1 -2q0 -5 8.5 -35.5t12.5 -41.5q7 -15 13 -25q8 -12 8 -13 q0 -6 -17 -6q-6 0 -9 2.5t-10 16.5q-8 16 -14.5 20t-25.5 6q-15 2 -29 9t-14 12q0 1 1 2q2 2 11 -5q8 -6 15 -6q4 0 19.5 6t15.5 8l-6 14q-18 38 -18 71q0 13 3 22q9 24 26 34z" />
  </symbol>


  <symbol id="nine" viewBox="0 0 24 24">
    <path d="M517 737q13 7 21 2q3 -2 0 -11q-2 -5 -2 -18q0 -10 -8 -21q-16 -24 -38 -81q-25 -63 -53 -102q-7 -10 -7 -37q0 -28 4 -27q11 4 52.5 80t68.5 142q15 34 20.5 43.5t13.5 9.5l2 -1h3q14 -3 54 -40l28 -27l-2 -32q-10 -189 -82 -311q-23 -38 -48.5 -66.5t-87.5 -84.5 q-52 -48 -75 -94q-27 -54 -31 -149q-3 -58 -6 -58l-2 3q-1 2 -3 89l-2 85l23 46q39 75 80 125q53 65 79 103q40 60 62 126l12 36l-6 51q-5 50 -8 50q-3 -3 -28 -44q-90 -146 -118 -161q-10 -4 -17 -4q-9 0 -19 5q-7 4 -38.5 27t-40.5 28l-16 10l4 12q7 16 11 27 q27 68 92 157.5t108 111.5zM108 491q0 -6 5 -13.5t5 -12.5q0 -7 8 -10q8 -2 20 -2q20 0 56 3q8 1 20 1q13 0 13 -2t-14 -7q-19 -8 -32 -16q-30 -18 -56 -18q-17 0 -33 6q-13 5 -25.5 16.5t-16.5 22.5t-4 18q0 10 11 20q13 13 17 23q10 21 38 35q11 6 11 14q0 15 8 39.5 t18 37.5q5 8 10 7t4 -9q-1 -16 -1 -40t2 -28q6 -18 20 -21q5 -2 5 -5q0 -4 -44 -21q-45 -17 -45 -38z" />
  </symbol>


  <symbol id="equal" viewBox="0 0 24 24">
    <path d="M681 334q-25 9 -30 9t-68.5 -37t-101.5 -63q-32 -21 -77 -58q-22 -20 -48 -48.5t-26 -33.5q0 -4 16 5q14 7 44 16.5t39 9.5q4 0 -6 -6l-15 -9q-55 -29 -85 -63t-48 -88q-8 -23 -8 -55q0 -74 39 -104q36 -27 101 -27q81 0 176 38.5t162 101.5q34 32 52 61.5t37 84.5l3 7 q1 0 1 -6q0 -17 -4 -41q-23 -130 -127 -248q-21 -24 -21 -27q0 -1 1 -1q4 0 49 33q125 93 162 222q10 36 10 57q0 15 -1 25q-2 43 -15 71q-56 120 -211 174zM831 792q-3 56 -28.5 82.5t-79.5 30.5q-3 0 -8 0.5t-8 0.5q-105 0 -203 -97.5t-98 -204.5q0 -57 37 -84t146 -50 l62 -13l18 20q35 39 74 94t58 93q30 57 30 115v13zM670 1001q15 3 49 3h19q107 -3 174 -67q46 -45 46 -116q0 -17 -3 -35q-20 -146 -156 -310q-35 -43 -35 -49q0 -1 34.5 -14.5t69.5 -26.5l36 -14q68 -35 114.5 -89.5t62.5 -118.5q5 -17 5 -57q0 -60 -10 -94 q-19 -68 -61 -123q-19 -27 -25 -27q-1 0 -1 2q0 3 6 13l2 5q-1 -2 -8 -10q-120 -144 -321 -241q-162 -79 -297 -79h-24q-93 4 -166 39q-127 64 -127 193q0 3 0.5 10t0.5 11q5 67 37 131q39 82 114 155q38 38 138 118t159 120l59 40l-26 6q-89 20 -147 55.5t-68 76.5l-5 24 l-9 -19q-9 -21 -9 -54t14 -62q14 -27 34 -46q15 -13 15 -16l-1 -1q-3 0 -19 10q-72 44 -90 115q-6 21 -6 65q0 45 6 72q31 146 151 262.5t268 142.5z" />
  </symbol>


  <symbol id="question" viewBox="0 0 24 24">
    <path d="M455 -13q-4 156 -8 160q-1 1 -6 1q-35 0 -77 -21q-39 -19 -61 -57q-13 -24 -13 -63q0 -40 13 -62q14 -24 30 -40q13 -14 55 -49.5t59 -46.5l11 -7v14q0 42 -3 171zM774 292q-13 12 -31 12t-32 -13t-14 -30q0 -16 13 -29q15 -16 34 -16q17 0 30 13t14 33q0 17 -14 30z M820 616q0 3 -3 3q-5 0 -27 -13q-24 -13 -60.5 -51.5t-60.5 -73.5q-25 -39 -62 -75.5t-62 -48.5q-27 -13 -29 -21q-1 -6 -5 -67l-3 -58h12q41 0 64 -48q12 -24 28 -24q20 0 54 31l24 22l-11 14q-11 13 -13 11q-3 -3 -1 -20l2 -18l-7 14q-9 21 -9 44q0 31 14.5 58t40.5 40 q18 9 41 9q13 0 20 -3q6 -2 9 1t9 16q18 44 18 71q0 26 -15 56q-14 28 -14 38q0 1 0.5 3.5t0.5 3.5q4 21 33 66q12 17 12 20zM288 812q-13 11 -36 11q-24 0 -38 -13q-23 -20 -23 -46q0 -17 13 -38q16 -25 46 -25q25 0 44.5 17t19.5 43q0 30 -26 51zM373 1105q29 20 33 20 l1 -1q0 -4 -20 -24q-41 -42 -58 -87l-8 -17l13 8q49 32 81 43.5t77 11.5t76 -10q75 -25 121 -87.5t46 -140.5q0 -111 -103 -195q-68 -56 -88 -94q-7 -14 -14 -49t-7 -54q0 -10 2 -10t29 19q31 22 122 119q70 73 126 101q20 10 31 12t42 2q44 0 69 -10q22 -8 26 -12 q2 -4 -27 -2h-9q-22 0 -39 -9.5t-44 -37.5q-44 -45 -44 -79q0 -17 24 -42q31 -33 31 -56q0 -24 -32 -74l-24 -38l9 -21q10 -25 10 -40q0 -16 -9 -31q-21 -38 -72 -42l-30 -3l-60 -57q-59 -55 -69 -55q-6 0 -9.5 7t-11.5 28q-18 57 -48 57q-11 0 -11 -3q0 -1 -1 -25.5 t-2.5 -72.5t-2.5 -93l-7 -187l21 -29q40 -54 64 -114q12 -30 12 -35l-1 -2q-3 0 -21 36q-15 31 -42 70t-33 39q-4 0 -4 -65q0 -21 -2 -74.5t-2 -58.5q-2 -52 -4 -52t-11 150q-4 91 -6.5 110.5t-9.5 24.5q-15 12 -48 34q-36 25 -79.5 66.5t-57.5 64.5q-25 42 -25 83 q0 25 11 52q2 5 4 9t2.5 6.5t-0.5 2.5q-6 0 -27.5 -16.5t-31.5 -28.5q-18 -22 -18 -17t17 27t36 39q48 46 145 83l60 24v143l-40 22q-39 20 -81 49q-11 7 -20 13t-14.5 8.5t-5.5 1.5q0 -6 4 -14q4 -11 9 -47q2 -22 2 -32q0 -72 -46 -125q-17 -20 -19 -18q-3 3 13 24 q24 35 24 85q0 52 -23 109t-78 141q-64 99 -97 177q-14 36 -14 40v1q3 0 15 -22q126 -229 286 -308q60 -29 82 -29h1q2 2 2 25q0 19 7.5 52t17.5 54l9 19l-17 -9q-40 -20 -59 -59q-7 -15 -10 -15q-1 0 -1 2q0 6 6 22q20 59 52 90t116 72q47 23 70 42.5t38 49.5q12 24 12 67 q0 41 -11 63q-17 35 -54.5 62t-79.5 35q-16 3 -35 3q-77 0 -129 -36q-33 -23 -59 -74l-10 -19l12 -8q10 -7 25 -22l12 -13l-2 26q-2 21 0 21q1 0 4 -4q9 -11 15 -36t6 -46v-10q-4 -52 -40.5 -89t-80.5 -37h-9q-41 4 -72 34q-34 34 -34 83q0 19 4 32q5 15 23.5 36t37.5 31 q13 7 18 14t14 32q12 30 29 64q13 22 23 44q9 17 34.5 43t49.5 42z" />
  </symbol>


  <symbol id="at" viewBox="0 0 24 24">
    <path d="M1035 990q2 3 10 1q20 -7 94 -19q23 -4 31 -8t24 -21l22 -24l-13 27q-6 11 -9.5 19.5t-2.5 8.5t20 -26q26 -40 91 -79q32 -19 57 -19q14 0 27 4q18 4 19 4q7 0 19 -9q13 -10 26 -12l11 -2l3 -73q3 -78 13 -138q11 -66 11 -70t-1 -4q-4 0 -41 89q-34 81 -49.5 101 t-58.5 35q-28 10 -45 22.5t-65 58.5q-41 39 -91 74t-81 47q-6 2 -11 5t-8 5t-2 3zM977 921q7 4 15 4q13 0 28 -16q16 -16 44 -30q30 -15 45 -34q30 -38 93 -93.5t106 -81.5q90 -55 112.5 -88t39.5 -132q11 -62 16 -79t24 -52l22 -40v-97l-30 -36q-63 -74 -108 -230 q-11 -40 -22 -61q-7 -11 -47 -30q-119 -60 -227 -193q-29 -36 -37 -36h-1q-46 16 -62 21q-136 48 -219 48q-91 0 -142 -50l-22 -21l-23 11q-16 7 -65 18q-41 8 -65 20t-53 38q-24 22 -100 84t-90 74q-36 32 -95 97t-59 72q0 2 12 -7.5t30 -24.5q71 -60 189 -119 q67 -33 93 -36q24 -3 24 2t-34.5 43.5t-65.5 67.5q-74 69 -88 92t-22 87q-10 79 -41 135q-15 27 -15 41q0 18 26 45q24 26 30.5 38t13.5 39l9 31v-22q0 -39 -32 -103q-14 -28 -14 -37t19 -40q20 -37 32 -78q20 -69 45 -107q32 -49 116 -119q30 -25 84 -74q77 -72 143 -98 q39 -16 75 -16q19 0 47 5q38 7 58 7t95 -8q76 -9 107 -11l32 -2l34 32q57 56 125 103q22 15 33.5 28t34.5 48q44 66 55 80q53 69 72 113q17 37 17 92q0 56 -17 104q-2 6 -7.5 20.5t-10 26.5t-4.5 16q0 2 1 2q1 1 5 -4.5t8.5 -16t9.5 -23t10 -26.5t9 -27t6.5 -23.5t2.5 -15.5 q0 -6 5 -9h1q3 0 3 21q0 70 -17 152q-10 51 -18 86q-4 25 -16 33q-31 24 -121 71q-20 11 -34 24t-48 52q-56 64 -102.5 97t-109.5 52q-37 12 -106 12q-20 0 -71 -1t-78 -1q-75 0 -107 6q-49 9 -49 12q0 1 6 1q11 0 20 -1q26 -3 96 -3q64 0 119 11q73 14 93 17q89 11 104 21z M406 772q72 21 82 21q4 0 4 -2q0 -4 -43 -33q-55 -38 -78 -65t-42 -76q-3 -7 -5 3q0 2 -1 7l-2 19l-20 -23q-35 -41 -53 -74q-11 -15 -13 -15q0 9 21 78t29 88q13 29 32 40t89 32zM674 775q-1 2 -1 4t2 2q6 0 35 -20q48 -32 88 -44.5t123 -21.5q80 -8 108 -19t74 -52 q33 -29 50 -32q15 -2 23 -8.5t22 -27.5q14 -23 40 -47q43 -42 73 -101q11 -22 11 -27l-1 -2q-3 0 -12 15q-13 20 -52 45q-48 30 -49 30l4 -7q33 -52 60 -105q15 -29 32.5 -71.5t17.5 -48.5q0 -5 -26 -48q-45 -73 -59 -142q-10 -44 -17 -53q-7 -11 -56 -36q-29 -15 -84 -48 q-67 -39 -112 -56q-106 -38 -124 -38h-1q-1 1 10 10t23 17.5t12 9.5q0 2 -8 2q-25 0 -80 -13q-35 -8 -49 -8q-24 0 -68 22q-67 32 -121 32q-37 0 -50 5q-12 5 -39 35q-28 32 -51 55l-26 26l-5 39q-3 27 -14.5 65.5t-19.5 47.5q-6 9 -19 35q-15 30 -26 98q-11 65 -13 75 q-2 6 1 7q4 2 8 -7q1 -1 1 -2q3 -9 11 -27l7 -17l13 14q21 25 21 53q0 7 14.5 35.5t22.5 36.5q6 8 18 10q8 1 25.5 17.5t17.5 21.5q0 1 -5 1t-21 -1t-22 -1q-8 0 -8 1q0 4 25 16q43 21 81 51.5t59 61.5q15 24 23 47q12 32 15 32q1 0 1 -6q0 -8 -1 -14q-11 -102 -134 -253 q-67 -84 -67 -140q0 -7 2 -17q8 -29 13 -40q7 -16 13 -62q5 -42 16 -65q29 -62 90 -113l32 -28h36q25 0 37 -3t41 -16q66 -31 105 -31q27 0 60 14q30 12 68 13q28 0 40 3t43 17q39 19 70 29q42 14 90 77q18 24 21.5 32.5t3.5 27.5q0 29 5 61q2 22 2 25q0 15 -10 49 q-14 51 -43 102q-3 5 -9 35q-6 33 -13 48q-9 19 -62.5 76.5t-71.5 68.5q-41 24 -108.5 38.5t-136.5 14.5h-36l21 11q20 10 38 16l16 5l-29 19q-22 14 -46 34.5t-29 27.5zM837 629q5 7 7 7t11 -19q20 -43 119 -110l49 -33l3 -26q4 -27 18 -40t14 -20q0 -1 -0.5 -3t-0.5 -4 q-2 -12 3 -12q7 2 15.5 17.5t10.5 29.5q5 26 9 26q2 0 2 -10q0 -64 -64 -133q-20 -21 -51.5 -45t-39.5 -24q-2 0 -2 1q0 7 22 36q38 53 38 86q0 19 -9 46q-11 33 -22.5 46t-43.5 29q-39 20 -64 43l-26 25l-29 -12q-71 -31 -71 -72q0 -8 -5.5 -13.5t-27.5 -19.5 q-31 -20 -63 -49.5t-40 -47.5t-8 -36q0 -34 24 -64q9 -10 2 -26q-7 -18 -1 -29q9 -25 64 -25h9h17q25 0 33 -2l8 -1l-5 4q-9 7 -22 9q-15 3 -20.5 12t-7.5 38q-4 37 -12 60q-9 25 -9 35q0 7 20.5 33t42.5 48q33 33 76 38q3 0 7.5 0.5t5.5 0.5q13 0 41 -21t33 -21q3 0 16 -11 q10 -8 11.5 -14.5t1.5 -34.5q0 -27 -1.5 -35t-9.5 -17q-3 -4 -10.5 -13t-9.5 -12q-13 -19 -42 -19q-19 0 -37 9q-7 4 -29 29.5t-22 30.5q0 4 8 15q12 15 36 15q28 0 28 -18q0 -7 -9 0q-9 6 -20 1q-16 -6 -16 -12q0 -3 5 -11q13 -23 40 -23q14 0 30 4q9 2 13 6.5t9 17.5 q7 18 7 29q0 10 -8 25q-7 13 -14 17.5t-35 13.5q-19 6 -34 6q-29 0 -66 -33q-27 -24 -27 -43q0 -10 6 -28q8 -22 8 -36q0 -1 -0.5 -3t-0.5 -3q0 -2 -0.5 -4t-0.5 -3q0 -9 15 -21q46 -38 90 -38q58 0 81 18q12 9 12 4q0 -4 -20.5 -21.5t-37.5 -28.5q-18 -13 -18 -15 q0 -7 23.5 -23.5t39.5 -20.5q30 -7 47 -7q43 0 123 37q52 25 59 25h1q2 -2 -5 -6q-18 -10 -77 -60q-23 -18 -48.5 -25t-73.5 -7q-38 0 -49 2t-32 13q-24 12 -41 12t-50 -14q-23 -9 -29 -9h-1q-2 1 1.5 5.5t11.5 12.5q15 14 12 15q-1 0 -7 -2q-15 -4 -44 -28q-33 -26 -40 -26 q-8 0 -34 30t-42 37q-12 5 -14 5q-5 0 -18 -7l-17 -9v5q1 5 1.5 15t0.5 18q1 9 1 27q0 52 -16 84.5t-41 32.5q-1 0 -3 -0.5t-3 -0.5q-3 -1 -8 -1q-6 0 -6 4q0 5 12 21q27 39 69 120q9 19 54.5 97t51.5 89q10 18 13 17q0 -10 -18 -44q-28 -56 -28 -80q0 -3 1 -4q2 -2 24 18 q22 18 41 53q18 35 31 45t45 12q56 5 73 26z" />
  </symbol>


  <symbol id="B" viewBox="0 0 24 24">
    <path d="M63 748q4 14 7 4l2 -8q3 -20 14.5 -39.5t24.5 -26.5q12 -7 41 -7q122 0 172 -9q44 -8 64.5 -26.5t20.5 -54.5q0 -42 -29 -124q-30 -86 -36 -116t-6 -91q0 -57 7 -99q8 -43 9 -95v-25q0 -30 -1 -30q-3 0 -12 13.5t-16 28.5q-40 86 -40 182q0 53 12 116q16 91 61 157 q12 19 16 31q3 9 3 29q0 15 -2 19q-1 3 -52 3q-50 0 -74 4q-141 25 -182 105q-8 14 -8 33q0 10 4 26zM494 540q16 3 28 -7q3 -3 9 -13t6 -12q0 -1 -22 -1q-23 0 -45 -12q-22 -11 -29 -11q-6 0 -6 7q0 9 22 27t37 22zM467 453q7 4 20 4q11 0 18 -3t31 -25q20 -18 33 -27 q20 -11 47 -11q28 0 62 12q7 2 14.5 5l12.5 5t6 2q4 2 4 0q-1 -5 -13 -17q-35 -35 -95 -35q-24 0 -48 8q-33 11 -73 40q-14 10 -16 8q-6 -8 -10 -71q0 -5 -0.5 -16t-0.5 -17q0 -29 2.5 -96t2.5 -94q0 -64 -8 -100q-12 -50 -27 -68q-7 -8 -9 -6.5t2 11.5q10 27 10 89 q0 42 -4 81q-9 105 -9 133q0 12 2 34q5 55 18.5 101t27.5 53zM497 46q1 12 4 12t3 -28q0 -68 -29 -129q-19 -39 -34 -39q-10 0 -18.5 6.5t-8.5 14.5v2l1 2q2 7 15 21q19 24 48 75q15 28 19 63z" />
  </symbol>


  <symbol id="B" viewBox="0 0 24 24">
    <path d="M63 748q4 14 7 4l2 -8q3 -20 14.5 -39.5t24.5 -26.5q12 -7 41 -7q122 0 172 -9q44 -8 64.5 -26.5t20.5 -54.5q0 -42 -29 -124q-30 -86 -36 -116t-6 -91q0 -57 7 -99q8 -43 9 -95v-25q0 -30 -1 -30q-3 0 -12 13.5t-16 28.5q-40 86 -40 182q0 53 12 116q16 91 61 157 q12 19 16 31q3 9 3 29q0 15 -2 19q-1 3 -52 3q-50 0 -74 4q-141 25 -182 105q-8 14 -8 33q0 10 4 26zM494 540q16 3 28 -7q3 -3 9 -13t6 -12q0 -1 -22 -1q-23 0 -45 -12q-22 -11 -29 -11q-6 0 -6 7q0 9 22 27t37 22zM467 453q7 4 20 4q11 0 18 -3t31 -25q20 -18 33 -27 q20 -11 47 -11q28 0 62 12q7 2 14.5 5l12.5 5t6 2q4 2 4 0q-1 -5 -13 -17q-35 -35 -95 -35q-24 0 -48 8q-33 11 -73 40q-14 10 -16 8q-6 -8 -10 -71q0 -5 -0.5 -16t-0.5 -17q0 -29 2.5 -96t2.5 -94q0 -64 -8 -100q-12 -50 -27 -68q-7 -8 -9 -6.5t2 11.5q10 27 10 89 q0 42 -4 81q-9 105 -9 133q0 12 2 34q5 55 18.5 101t27.5 53zM497 46q1 12 4 12t3 -28q0 -68 -29 -129q-19 -39 -34 -39q-10 0 -18.5 6.5t-8.5 14.5v2l1 2q2 7 15 21q19 24 48 75q15 28 19 63z" />
  </symbol>


  <symbol id="C" viewBox="0 0 24 24">
    <path d="M67 765q0 4 1 4q4 0 17 -34q44 -113 100 -180.5t154 -135.5q142 -98 213 -185q75 -94 75 -162q0 -17 -5 -27q-13 -30 -65 -40q-15 -3 -32 -3q-36 0 -142 24q-69 16 -116 18q-6 0 -14.5 0.5t-10.5 0.5q-12 0 -12 -2q0 -3 -8 -3q-22 0 -47 -16q-28 -17 -43 -47 q-11 -25 -11 -47q0 -39 26 -60q5 -4 6.5 -7t-1 -3.5t-9.5 1.5q-28 8 -50 47.5t-22 84.5q0 21 6 42q27 83 101 122q34 17 71 17q28 0 98 -22q84 -27 132 -28q30 0 41 6q21 12 21 30q0 12 -11 36q-19 37 -54 70q-45 43 -100.5 73t-143.5 60q-81 28 -100 43q-33 26 -49 57 q-25 51 -25 131q0 40 6 96q3 30 3 39zM603 311q4 4 6 -5q1 -3 2 -12q5 -30 38 -81q46 -70 71 -149q5 -17 5 -32q0 -60 -40 -90q-20 -15 -52 -15q-29 0 -93 9q-48 6 -71 6q-17 0 -44 -5q-2 0 -5.5 -1t-6 -1.5l-5 -1t-4.5 -1t-3.5 -1t-2.5 0.5h-1q0 2 11.5 9.5t21.5 11.5 q25 10 91 10h20q55 0 75 14q33 21 33 80q0 8 -2 28q-5 37 -31 116q-6 16 -11 38q-4 20 -4 50q0 20 2 22z" />
  </symbol>


  <symbol id="C" viewBox="0 0 24 24">
    <path d="M67 765q0 4 1 4q4 0 17 -34q44 -113 100 -180.5t154 -135.5q142 -98 213 -185q75 -94 75 -162q0 -17 -5 -27q-13 -30 -65 -40q-15 -3 -32 -3q-36 0 -142 24q-69 16 -116 18q-6 0 -14.5 0.5t-10.5 0.5q-12 0 -12 -2q0 -3 -8 -3q-22 0 -47 -16q-28 -17 -43 -47 q-11 -25 -11 -47q0 -39 26 -60q5 -4 6.5 -7t-1 -3.5t-9.5 1.5q-28 8 -50 47.5t-22 84.5q0 21 6 42q27 83 101 122q34 17 71 17q28 0 98 -22q84 -27 132 -28q30 0 41 6q21 12 21 30q0 12 -11 36q-19 37 -54 70q-45 43 -100.5 73t-143.5 60q-81 28 -100 43q-33 26 -49 57 q-25 51 -25 131q0 40 6 96q3 30 3 39zM603 311q4 4 6 -5q1 -3 2 -12q5 -30 38 -81q46 -70 71 -149q5 -17 5 -32q0 -60 -40 -90q-20 -15 -52 -15q-29 0 -93 9q-48 6 -71 6q-17 0 -44 -5q-2 0 -5.5 -1t-6 -1.5l-5 -1t-4.5 -1t-3.5 -1t-2.5 0.5h-1q0 2 11.5 9.5t21.5 11.5 q25 10 91 10h20q55 0 75 14q33 21 33 80q0 8 -2 28q-5 37 -31 116q-6 16 -11 38q-4 20 -4 50q0 20 2 22z" />
  </symbol>


  <symbol id="F" viewBox="0 0 24 24">
    <path d="M359 748q8 1 22 1q42 0 65.5 -15t23.5 -43q0 -72 -123 -219q-77 -93 -128 -175q-54 -88 -54 -144q0 -48 28 -76q36 -36 80 -36q10 0 14 1q37 7 85 44t85 86q2 2 4 6q15 17 16 17q0 -4 -12.5 -28.5t-23.5 -40.5q-29 -41 -75.5 -75.5t-97.5 -52.5q-18 -6 -46 -6 q-29 0 -45 9q-62 35 -62 116q0 15 3 32q11 67 55 137t143 180q60 67 87 112.5t34 90.5q1 7 1 17q0 15 -7 21t-25 6h-5q-50 -1 -133 -34q-75 -30 -109 -58t-34 -62v-6q1 -14 17 -41q27 -46 28 -87q0 -4 0.5 -9.5t0.5 -7.5q0 -8 -5 -25q-5 -16 -9 -18q-1 0 -1.5 1t-1 4.5t-1 8 t-0.5 10.5q-3 59 -45 91q-38 29 -46 52q-4 12 -4 28q0 61 59 101q42 29 117 55.5t125 31.5zM657 537q21 16 26 16q4 0 -12 -18q-63 -68 -75 -143q-3 -18 -3 -37q0 -43 12.5 -82.5t32.5 -60.5q19 -22 52 -31q34 -9 46 -20q17 -15 17 -38v-5q-2 -16 -11.5 -30t-37.5 -42 q-48 -48 -71.5 -85t-36.5 -84q-6 -23 -8 -23t-2 8q0 2 0.5 8t0.5 11q1 31 8 54q23 75 94 152q20 22 20 26q0 10 -35 14q-116 15 -137 150q-2 10 -2 34q0 46 7 71q22 89 115 155zM757 324q13 23 41 23q9 0 17 -4q11 -5 22.5 -22.5t13.5 -32.5v-6q0 -22 -17 -48 q-19 -31 -41 -31q-9 0 -17 7q-27 24 -27 76q0 25 8 38z" />
  </symbol>


  <symbol id="F" viewBox="0 0 24 24">
    <path d="M359 748q8 1 22 1q42 0 65.5 -15t23.5 -43q0 -72 -123 -219q-77 -93 -128 -175q-54 -88 -54 -144q0 -48 28 -76q36 -36 80 -36q10 0 14 1q37 7 85 44t85 86q2 2 4 6q15 17 16 17q0 -4 -12.5 -28.5t-23.5 -40.5q-29 -41 -75.5 -75.5t-97.5 -52.5q-18 -6 -46 -6 q-29 0 -45 9q-62 35 -62 116q0 15 3 32q11 67 55 137t143 180q60 67 87 112.5t34 90.5q1 7 1 17q0 15 -7 21t-25 6h-5q-50 -1 -133 -34q-75 -30 -109 -58t-34 -62v-6q1 -14 17 -41q27 -46 28 -87q0 -4 0.5 -9.5t0.5 -7.5q0 -8 -5 -25q-5 -16 -9 -18q-1 0 -1.5 1t-1 4.5t-1 8 t-0.5 10.5q-3 59 -45 91q-38 29 -46 52q-4 12 -4 28q0 61 59 101q42 29 117 55.5t125 31.5zM657 537q21 16 26 16q4 0 -12 -18q-63 -68 -75 -143q-3 -18 -3 -37q0 -43 12.5 -82.5t32.5 -60.5q19 -22 52 -31q34 -9 46 -20q17 -15 17 -38v-5q-2 -16 -11.5 -30t-37.5 -42 q-48 -48 -71.5 -85t-36.5 -84q-6 -23 -8 -23t-2 8q0 2 0.5 8t0.5 11q1 31 8 54q23 75 94 152q20 22 20 26q0 10 -35 14q-116 15 -137 150q-2 10 -2 34q0 46 7 71q22 89 115 155zM757 324q13 23 41 23q9 0 17 -4q11 -5 22.5 -22.5t13.5 -32.5v-6q0 -22 -17 -48 q-19 -31 -41 -31q-9 0 -17 7q-27 24 -27 76q0 25 8 38z" />
  </symbol>


  <symbol id="J" viewBox="0 0 24 24">
    <path d="M820 735q11 19 14 19q2 0 2 -4t-1 -7q-6 -39 -20 -65.5t-45 -58.5q-75 -78 -161 -96q-17 -4 -45 -4q-29 0 -51 5q-32 8 -52.5 23t-59.5 59q-22 24 -39 33q-21 11 -44 11q-27 0 -52 -14q-17 -9 -29 -22t-18 -22.5t-10.5 -36t-5 -36t-2.5 -49.5q-1 -11 -1 -16 q-4 -88 -13 -153q-8 -55 -8 -110q0 -78 22 -134t71 -105q46 -45 108 -80q24 -15 24 -17t-9 -2q-40 0 -106 16q-98 22 -162 81q-44 41 -63 102q-7 23 -8 70v15q0 39 4 39h1l13 -22q14 -21 27 -42t14 -21q2 0 2 1q0 2 11 53q18 95 18 149q0 53 -18 137q-15 69 -15 109 q0 50 25 88q55 83 177 89q3 0 8.5 0.5t8.5 0.5q36 0 78 -13q43 -14 90 -51q65 -52 121 -52h11q60 4 109 41.5t79 91.5zM621 216q31 63 83 63q34 0 63 -32q25 -27 50 -102q12 -37 16.5 -48t16.5 -26.5t33 -29.5q18 -11 18 -14t-5 -3q-23 0 -65 29q-24 16 -51.5 45.5 t-39.5 51.5q-23 42 -47 42q-6 0 -14 -4q-11 -6 -19 -52q-9 -58 -56 -90.5t-116 -32.5q-82 0 -121 42q-22 24 -22 34q0 2 1 2q2 0 10 -6q39 -31 82 -34h12q64 0 109 46q28 28 46 79q10 28 16 40z" />
  </symbol>


  <symbol id="J" viewBox="0 0 24 24">
    <path d="M820 735q11 19 14 19q2 0 2 -4t-1 -7q-6 -39 -20 -65.5t-45 -58.5q-75 -78 -161 -96q-17 -4 -45 -4q-29 0 -51 5q-32 8 -52.5 23t-59.5 59q-22 24 -39 33q-21 11 -44 11q-27 0 -52 -14q-17 -9 -29 -22t-18 -22.5t-10.5 -36t-5 -36t-2.5 -49.5q-1 -11 -1 -16 q-4 -88 -13 -153q-8 -55 -8 -110q0 -78 22 -134t71 -105q46 -45 108 -80q24 -15 24 -17t-9 -2q-40 0 -106 16q-98 22 -162 81q-44 41 -63 102q-7 23 -8 70v15q0 39 4 39h1l13 -22q14 -21 27 -42t14 -21q2 0 2 1q0 2 11 53q18 95 18 149q0 53 -18 137q-15 69 -15 109 q0 50 25 88q55 83 177 89q3 0 8.5 0.5t8.5 0.5q36 0 78 -13q43 -14 90 -51q65 -52 121 -52h11q60 4 109 41.5t79 91.5zM621 216q31 63 83 63q34 0 63 -32q25 -27 50 -102q12 -37 16.5 -48t16.5 -26.5t33 -29.5q18 -11 18 -14t-5 -3q-23 0 -65 29q-24 16 -51.5 45.5 t-39.5 51.5q-23 42 -47 42q-6 0 -14 -4q-11 -6 -19 -52q-9 -58 -56 -90.5t-116 -32.5q-82 0 -121 42q-22 24 -22 34q0 2 1 2q2 0 10 -6q39 -31 82 -34h12q64 0 109 46q28 28 46 79q10 28 16 40z" />
  </symbol>


  <symbol id="K" viewBox="0 0 24 24">
    <path d="M449 524q0 -7 -17.5 -16.5t-24.5 -9.5q-4 0 -5 -2q0 -4 -48 -11q-124 -21 -186 -86q-35 -38 -35 -66q0 -26 25 -55q18 -22 50 -43t100 -55q54 -27 69 -38t18 -27q1 -4 1 -17q0 -63 -19 -137q-9 -34 -22 -70t-17 -36q-2 0 -4 40q-5 129 -37 189q-36 71 -86 111 q-27 21 -106 59q-48 23 -48 48q0 12 5 22q7 14 47 68q60 80 138.5 193t86.5 130l12 24q8 17 13 17q2 0 2 -1q0 -2 -14.5 -44t-18.5 -53l-6 -14l10 10q3 3 8.5 11.5t10.5 14t10 8.5q1 1 3 1q3 0 5 -2.5t4.5 -8.5t4 -10.5t4 -13t3.5 -11.5q20 -70 47 -98q17 -19 17 -21z M455 367q7 2 26 2q37 0 37 -7q0 -4 -18 -7l-11 -2l14 -9q28 -17 36 -38q2 -4 2 -12q0 -21 -20 -45q-10 -13 -5 -14q13 -1 -8 -14q-25 -16 -35 -16t-28 6q-37 12 -54 38q-8 13 -8 31q0 32 22 55q24 26 50 32z" />
  </symbol>


  <symbol id="K" viewBox="0 0 24 24">
    <path d="M449 524q0 -7 -17.5 -16.5t-24.5 -9.5q-4 0 -5 -2q0 -4 -48 -11q-124 -21 -186 -86q-35 -38 -35 -66q0 -26 25 -55q18 -22 50 -43t100 -55q54 -27 69 -38t18 -27q1 -4 1 -17q0 -63 -19 -137q-9 -34 -22 -70t-17 -36q-2 0 -4 40q-5 129 -37 189q-36 71 -86 111 q-27 21 -106 59q-48 23 -48 48q0 12 5 22q7 14 47 68q60 80 138.5 193t86.5 130l12 24q8 17 13 17q2 0 2 -1q0 -2 -14.5 -44t-18.5 -53l-6 -14l10 10q3 3 8.5 11.5t10.5 14t10 8.5q1 1 3 1q3 0 5 -2.5t4.5 -8.5t4 -10.5t4 -13t3.5 -11.5q20 -70 47 -98q17 -19 17 -21z M455 367q7 2 26 2q37 0 37 -7q0 -4 -18 -7l-11 -2l14 -9q28 -17 36 -38q2 -4 2 -12q0 -21 -20 -45q-10 -13 -5 -14q13 -1 -8 -14q-25 -16 -35 -16t-28 6q-37 12 -54 38q-8 13 -8 31q0 32 22 55q24 26 50 32z" />
  </symbol>


  <symbol id="P" viewBox="0 0 24 24">
    <path d="M372 738q36 18 38 18q1 0 -23 -27t-48.5 -56t-24.5 -34q0 -3 -4 -7q-7 -7 2 -6q4 1 11 4q18 7 42 7q15 0 29 -3q55 -13 100.5 -64.5t58.5 -117.5q5 -24 5 -153q0 -133 6 -160q18 -84 35 -102q6 -6 15 -6q22 0 53 31q22 22 46 72q47 95 58 276q2 28 2 42q0 94 -37 177 q-2 4 -3 8t-1 6v2q7 0 49 -64q38 -58 53 -122q5 -22 5 -65q0 -35 -4 -59q-20 -93 -92 -248q-17 -38 -17 -40q0 -4 -16 -31t-26 -40q-39 -52 -67 -52q-27 0 -51 53q-34 72 -43 176q0 4 -1.5 52t-3 90t-3.5 51q-20 102 -79 151q-67 54 -150 54q-91 0 -151 -78 q-56 -76 -69 -204q-4 -31 -5 -32h-1q-5 0 -5 65q0 56 5 84q14 73 50 132q44 73 144 148q49 37 118 72zM209 411q-1 4 -1 9l1 3q3 0 13 -33q12 -42 15.5 -65t3.5 -73q0 -61 -6 -80q-10 -33 -34.5 -53t-79.5 -40q-26 -9 -26 -13q1 -3 87 -62q142 -95 237 -95h10q49 3 84 35 q5 5 8 5q1 0 1 -1q0 -3 -10 -18q-45 -67 -132 -67q-30 0 -60 10q-47 16 -89 45.5t-99 86.5q-44 43 -51 54l-10 12l8 9q98 124 122 198q12 39 12 76q0 13 -4 57z" />
  </symbol>


  <symbol id="P" viewBox="0 0 24 24">
    <path d="M372 738q36 18 38 18q1 0 -23 -27t-48.5 -56t-24.5 -34q0 -3 -4 -7q-7 -7 2 -6q4 1 11 4q18 7 42 7q15 0 29 -3q55 -13 100.5 -64.5t58.5 -117.5q5 -24 5 -153q0 -133 6 -160q18 -84 35 -102q6 -6 15 -6q22 0 53 31q22 22 46 72q47 95 58 276q2 28 2 42q0 94 -37 177 q-2 4 -3 8t-1 6v2q7 0 49 -64q38 -58 53 -122q5 -22 5 -65q0 -35 -4 -59q-20 -93 -92 -248q-17 -38 -17 -40q0 -4 -16 -31t-26 -40q-39 -52 -67 -52q-27 0 -51 53q-34 72 -43 176q0 4 -1.5 52t-3 90t-3.5 51q-20 102 -79 151q-67 54 -150 54q-91 0 -151 -78 q-56 -76 -69 -204q-4 -31 -5 -32h-1q-5 0 -5 65q0 56 5 84q14 73 50 132q44 73 144 148q49 37 118 72zM209 411q-1 4 -1 9l1 3q3 0 13 -33q12 -42 15.5 -65t3.5 -73q0 -61 -6 -80q-10 -33 -34.5 -53t-79.5 -40q-26 -9 -26 -13q1 -3 87 -62q142 -95 237 -95h10q49 3 84 35 q5 5 8 5q1 0 1 -1q0 -3 -10 -18q-45 -67 -132 -67q-30 0 -60 10q-47 16 -89 45.5t-99 86.5q-44 43 -51 54l-10 12l8 9q98 124 122 198q12 39 12 76q0 13 -4 57z" />
  </symbol>


  <symbol id="Y" viewBox="0 0 24 24">
    <path d="M140 702q59 59 145 59q20 0 47 -5q37 -8 50 -41t14 -120v-20q0 -25 -4 -36t-20 -33q-13 -19 -13 -23q0 -16 67 -24q32 -4 37 -6t16.5 -16.5t11.5 -19.5q0 -7 -16 -37q-25 -49 -92 -113q-88 -84 -163 -170q-72 -84 -72 -92q0 -1 8.5 7t19.5 21t17 21q8 11 54.5 58t54.5 47 q1 0 1 -1t-23 -26q-32 -34 -84.5 -103.5t-73.5 -105.5q-16 -27 -22.5 -35.5t-17.5 -13.5q-7 -3 -11 -3q-13 0 -13 21q0 18 15 73q26 87 61 133q20 27 72 73t104 84q100 72 130 117q11 17 11 25q0 17 -44 17q-20 0 -33 -1q-6 0 -13.5 -0.5t-12 -1t-7.5 -0.5q-11 0 -19 4 q-21 9 -21 33q0 5 2 17q9 33 30 55q20 21 33 50q15 30 15 44q0 11 -10 31q-15 30 -44 47.5t-63 17.5q-12 0 -26 -3q-44 -9 -63 -45q-22 -40 -22 -86q0 -87 61 -146q18 -16 16 -18h-1q-6 0 -42.5 34.5t-51.5 54.5q-41 52 -41 102q0 53 46 99zM717 423q9 10 10 10q1 -1 -6 -18 q-15 -32 -20 -63q-8 -48 -8 -93q0 -37 6 -63q11 -49 70 -172q21 -43 21 -58q0 -25 -17 -32q-12 -5 -29 -5q-41 0 -79 18q-10 5 -31 13t-31 14q-11 6 -55 6t-60 -3q-20 -5 -46 -19t-41 -28q-15 -15 -31 -20q-13 -4 -17 -10q-6 -9 -15 2q-6 6 -7 25v7q0 15 8 42q10 31 10 60 q0 11 -4 41q-3 18 -3 24q0 4 2 8q38 52 161 175q76 76 80 76q1 0 -1.5 -3t-9.5 -10.5t-16 -17.5q-66 -71 -74 -85l-27 -36q-62 -81 -62 -114q0 -14 10 -31q14 -24 14 -33q0 -7 -4 -16q-9 -21 -4 -28q2 -4 17 5q42 25 100 25q4 0 11 -0.5t10 -0.5q48 -2 85 -13q18 -6 36 -6 q30 0 36 15q5 15 5 25q0 28 -36 77q-45 66 -45 112q0 7 2 21q9 71 85 177z" />
  </symbol>


  <symbol id="Y" viewBox="0 0 24 24">
    <path d="M140 702q59 59 145 59q20 0 47 -5q37 -8 50 -41t14 -120v-20q0 -25 -4 -36t-20 -33q-13 -19 -13 -23q0 -16 67 -24q32 -4 37 -6t16.5 -16.5t11.5 -19.5q0 -7 -16 -37q-25 -49 -92 -113q-88 -84 -163 -170q-72 -84 -72 -92q0 -1 8.5 7t19.5 21t17 21q8 11 54.5 58t54.5 47 q1 0 1 -1t-23 -26q-32 -34 -84.5 -103.5t-73.5 -105.5q-16 -27 -22.5 -35.5t-17.5 -13.5q-7 -3 -11 -3q-13 0 -13 21q0 18 15 73q26 87 61 133q20 27 72 73t104 84q100 72 130 117q11 17 11 25q0 17 -44 17q-20 0 -33 -1q-6 0 -13.5 -0.5t-12 -1t-7.5 -0.5q-11 0 -19 4 q-21 9 -21 33q0 5 2 17q9 33 30 55q20 21 33 50q15 30 15 44q0 11 -10 31q-15 30 -44 47.5t-63 17.5q-12 0 -26 -3q-44 -9 -63 -45q-22 -40 -22 -86q0 -87 61 -146q18 -16 16 -18h-1q-6 0 -42.5 34.5t-51.5 54.5q-41 52 -41 102q0 53 46 99zM717 423q9 10 10 10q1 -1 -6 -18 q-15 -32 -20 -63q-8 -48 -8 -93q0 -37 6 -63q11 -49 70 -172q21 -43 21 -58q0 -25 -17 -32q-12 -5 -29 -5q-41 0 -79 18q-10 5 -31 13t-31 14q-11 6 -55 6t-60 -3q-20 -5 -46 -19t-41 -28q-15 -15 -31 -20q-13 -4 -17 -10q-6 -9 -15 2q-6 6 -7 25v7q0 15 8 42q10 31 10 60 q0 11 -4 41q-3 18 -3 24q0 4 2 8q38 52 161 175q76 76 80 76q1 0 -1.5 -3t-9.5 -10.5t-16 -17.5q-66 -71 -74 -85l-27 -36q-62 -81 -62 -114q0 -14 10 -31q14 -24 14 -33q0 -7 -4 -16q-9 -21 -4 -28q2 -4 17 5q42 25 100 25q4 0 11 -0.5t10 -0.5q48 -2 85 -13q18 -6 36 -6 q30 0 36 15q5 15 5 25q0 28 -36 77q-45 66 -45 112q0 7 2 21q9 71 85 177z" />
  </symbol>


  <symbol id="asciicircum" viewBox="0 0 24 24">
    <path d="M779 880q7 18 11 17q3 -3 36 -82q30 -71 101.5 -215.5t117.5 -227.5q156 -282 388 -558q46 -55 46 -56t-6 1.5t-17 7t-23 9.5q-83 35 -154 35q-92 0 -146 -54l-20 -19l-29 2q-90 9 -175 31q-30 8 -40 8h-1l4 -3q3 -4 10 -9t16 -11q43 -29 88 -48.5t70 -19.5q17 0 17 -5 q0 -4 -29 -4q-52 0 -82 7q-57 15 -133 72q-108 82 -224 90q-32 3 -32 4t9 4q43 13 94 13q13 0 18 -1q24 -1 121 -19q167 -30 232 -30q107 0 168 48l16 13l68 -21q17 -6 33.5 -11t25.5 -7.5t9 -1.5q0 2 -38 51q-252 318 -484 691q-67 106 -70 109q-1 1 -2 1q-7 0 -37 -41 q-47 -63 -107 -135.5t-67 -72.5v1q1 1 2.5 4l3 6t5 7.5t6 8.5t6.5 10t7 11q32 49 67 119q71 140 120 271zM439 204q18 22 22 22q1 0 -2 -5.5t-9.5 -14.5t-13.5 -17q-44 -57 -69 -102.5t-53 -119.5q-33 -87 -66 -137q-17 -28 -17 -31h1q2 0 34 8l33 9l26 -13q43 -22 98 -22 q35 0 85 9q12 2 25 4.5t19 3.5l7 2q0 2 -29 9q-30 7 -42 13l-6 5l14 -2q16 -2 55 -2h28h29q37 0 62 -8q48 -15 98 -58q17 -16 51 -39q22 -14 22 -17h-1q-4 0 -8 1q-14 3 -67 24q-91 37 -143 37q-18 0 -36 -3q-60 -10 -118 -44l-25 -14l-27 12q-21 10 -59 21q-41 11 -99 11 q-21 0 -21 -3q0 -4 -12 -4q-29 0 -71.5 -22t-70.5 -42t-28 -19q0 7 110 146q23 30 36 47.5t19 28.5t23.5 40t39.5 64q95 151 156 222z" />
  </symbol>


  <symbol id="underscore" viewBox="0 0 24 24">
    <path d="M405 639q1 3 5 20.5t8 31.5t6 14q1 0 1 -25v-20l-1 -44l26 -6q54 -12 88 -30q43 -23 62 -46q15 -17 12 4q-5 34 -23 75q-11 25 -11 27q0 1 1 0l3 -3q7 -6 22.5 -29.5t24.5 -40.5q19 -38 30 -87q5 -20 5 -68q0 -45 -7 -71q-9 -31 -9 -34l1 -1l1 1q1 1 2.5 3t3.5 4 q59 65 89 122q9 17 12 17q0 -20 -27 -74q-35 -74 -96 -140t-120 -95q-36 -16 -45 -16h-1l2 2q1 1 5.5 4t8 5.5l10.5 7.5q120 79 120 214q0 76 -45.5 130.5t-120.5 70.5q-15 3 -22 3q-3 0 -3 -36q0 -58 1 -115q4 -367 9 -382q0 -1 1 -1q4 0 51 44q97 91 176 145 q24 16 55 33.5t36 17.5h1q1 -1 -9 -9.5t-34 -27.5q-104 -81 -156 -137.5t-94 -132.5q-30 -54 -35 -76q-3 -9 -5 -9q-1 1 -11 27q-69 175 -313 334q-42 26 -42 31q0 1 16.5 -6t39.5 -18.5t38 -20.5q108 -60 222 -167l41 -38l-2 28q0 6 -1 24.5t-1.5 45.5t-1.5 47 q-4 144 -6.5 171t-11.5 53q-25 72 -28 75l-9 -5q-62 -46 -66 -46t13 19q17 21 44 65.5t32 58.5q2 5 -2.5 5t-21.5 -5q-62 -18 -104 -71t-42 -124q0 -40 15 -83q27 -81 105 -132q24 -17 24 -18t-1 -1q-4 0 -26 9q-75 29 -145.5 114t-102.5 170q-11 31 -11 34v1q1 0 10 -16 q32 -62 86 -121q9 -11 12 -11q1 0 1 2l-7 28q-10 38 -10 74q0 10 2 32q10 96 73 183l6 9l10 11l-11 -24q-21 -42 -26 -85l-1 -18l19 19q51 50 145 71l28 6z" />
  </symbol>


  <symbol id="a" viewBox="0 0 520 520">
    <path fill="none" stroke="currentColor" stroke-width="2" stroke-linecap="round" stroke-linejoin="round" d="M183 739q0 3 2.5 9t4.5 6q5 0 5 -12q0 -3 -2 -19q-1 -9 -1 -51q0 -99 4 -123q2 -11 6 -21t5 -19q4 -25 18 -65.5t17 -55.5q4 -22 4 -29q0 -23 -21 -62q-12 -24 -17 -39q-4 -13 -8 -18q-4 -6 -13.5 -40.5t-11.5 -38.5q-5 -13 -5 -77q0 -62 5 -79q3 -10 7.5 -29.5t9 -35 t10.5 -28.5q3 -7 13 -35t16 -38q11 -15 4 -20q-2 -2 -7 1q-4 2 -20 25.5t-25 38.5q-15 27 -35 80q-22 55 -22 84q0 9 -4 14t-4 40t4 46t9 43q6 41 19.5 74t19.5 63q4 19 6 21q5 7 5 14t-6 24q-23 69 -23 90q0 7 -6 7q-7 0 -20.5 -8t-17.5 -12q-7 -6 -22 -12t-23 -6 q-4 0 -4 2q0 3 12 17q32 37 51 82t36 121q8 37 17 54q8 16 8 17zM317 473q5 15 19 1q7 -7 12 -19q6 -13 6 -67q0 -81 -1 -111q0 -9 -0.5 -21.5t-0.5 -15.5q0 -20 4 -27q4 -8 13 -8q8 0 28 10q21 10 43 10q12 0 19 -5q6 -4 15.5 -22t9.5 -25q0 -18 -18 -27q-9 -5 -46 -5 q-52 0 -77.5 9.5t-34.5 31.5q-8 22 -8 66v7q2 22 4 73q6 134 13 145z" />
  </symbol>

  <symbol id="d" viewBox="-1000 -1000 1520 1520">
    <path fill="none" stroke="currentColor" stroke-width="2" stroke-linecap="round" stroke-linejoin="round" d="M125 622q-2 23 1 23h2q6 -2 15 -20q32 -59 77.5 -82.5t134.5 -32.5q100 -9 147 -31q75 -36 80 -120v-12q0 -17 -6 -33q-11 -33 -44 -90q-33 -59 -44 -102q-6 -31 -11 -31q-6 0 -6 80v50l12 36q11 32 11 45v10q-4 58 -77 101q-49 29 -144 61q-69 24 -76 28q-66 31 -72 120 zM58 545q2 13 6 13t8 -15q10 -36 34 -59q33 -33 84 -33q11 0 43 4q14 2 24 2q3 0 8 -0.5t7 -0.5q33 -3 63 -18.5t30 -27.5q0 -3 -3 -6q-3 -4 -13 4t-30 8q-24 0 -53 -8q-47 -11 -75 -11q-47 0 -80 29q-20 17 -36.5 52.5t-16.5 60.5v6zM359 347q0 1 2 1q6 0 23 -10.5 t30 -22.5q37 -36 37 -87v-12q-2 -33 -17.5 -63.5t-53.5 -81.5q-55 -73 -55 -110q0 -21 14 -35q6 -6 27 -6q61 0 173 90q4 3 15.5 13t15 12.5t13 8.5t15 8t15 5t19.5 4t23 1h17q44 -2 81 -8.5t37 -12.5q0 -2 -13 -6q-7 -2 -88 -29q-113 -38 -216 -88q-79 -38 -113 -40h-9 q-73 0 -73 82q0 24 10 59q15 51 54 122q29 52 37.5 75t8.5 47q0 34 -21 69q-8 14 -8 15z" />
  </symbol>


  <symbol id="d" viewBox="0 0 24 24">
    <path d="M125 622q-2 23 1 23h2q6 -2 15 -20q32 -59 77.5 -82.5t134.5 -32.5q100 -9 147 -31q75 -36 80 -120v-12q0 -17 -6 -33q-11 -33 -44 -90q-33 -59 -44 -102q-6 -31 -11 -31q-6 0 -6 80v50l12 36q11 32 11 45v10q-4 58 -77 101q-49 29 -144 61q-69 24 -76 28q-66 31 -72 120 zM58 545q2 13 6 13t8 -15q10 -36 34 -59q33 -33 84 -33q11 0 43 4q14 2 24 2q3 0 8 -0.5t7 -0.5q33 -3 63 -18.5t30 -27.5q0 -3 -3 -6q-3 -4 -13 4t-30 8q-24 0 -53 -8q-47 -11 -75 -11q-47 0 -80 29q-20 17 -36.5 52.5t-16.5 60.5v6zM359 347q0 1 2 1q6 0 23 -10.5 t30 -22.5q37 -36 37 -87v-12q-2 -33 -17.5 -63.5t-53.5 -81.5q-55 -73 -55 -110q0 -21 14 -35q6 -6 27 -6q61 0 173 90q4 3 15.5 13t15 12.5t13 8.5t15 8t15 5t19.5 4t23 1h17q44 -2 81 -8.5t37 -12.5q0 -2 -13 -6q-7 -2 -88 -29q-113 -38 -216 -88q-79 -38 -113 -40h-9 q-73 0 -73 82q0 24 10 59q15 51 54 122q29 52 37.5 75t8.5 47q0 34 -21 69q-8 14 -8 15z" />
  </symbol>


  <symbol id="e" viewBox="0 0 24 24">
    <path d="M451 693q10 13 12 6q1 -4 1 -44q0 -62 -2 -87q-2 -38 -8 -51.5t-29 -34.5q-17 -17 -27 -22q-8 -4 -33 -21.5t-37 -27.5l-17 -13q-4 0 -61 -51q-63 -56 -63 -64l1 -1h1q3 0 29 12q24 13 59 21q27 6 43 12q10 5 52 5q41 0 51 -5q3 -2 11.5 -5t10.5 -4q19 -7 28.5 -16.5 t26.5 -38.5q17 -28 17 -75v-14q-2 -28 -5 -47.5t-5 -29t-7.5 -30.5t-9.5 -38q-3 -12 -8 -37t-7 -31q-12 -44 -15 -113q-2 -27 -4 -27t-3 4q-2 4 -2 15q0 13 -3 22q-4 11 -4 29q0 17 4 28q5 15 5 126v112l-8 23q-23 71 -51 84q-2 1 -6.5 3t-8 4t-5.5 3q-20 10 -60 10 q-43 0 -73 -11q-15 -6 -41 -14q-49 -17 -92 -45q-14 -9 -16 -9q-3 0 -16 -11q-11 -10 -17 -10q-2 0 -2 3q0 5 11 24t58 65q143 137 168 171l24 31q7 7 7 10t11 16q15 18 48.5 72t50.5 88q10 20 16 29zM553 682q1 4 4 4q6 0 12 -26q3 -11 6 -90q2 -74 4 -76t11 1t16 3 q23 0 41 -27q17 -28 17 -67q0 -32 -7 -74q-8 -47 -9 -115q-1 -67 -4 -67h-1q-6 6 -7.5 28t-3.5 120q-1 96 -3.5 118t-10.5 30q-4 4 -19 4t-29 -11q-21 -16 -36 -16q-7 0 -9 4t-2 18q0 17 8 36q15 36 29 101q2 12 2 29q0 47 -6 61q-5 8 -3 12z" />
  </symbol>


  <symbol id="e" viewBox="0 0 24 24">
    <path d="M451 693q10 13 12 6q1 -4 1 -44q0 -62 -2 -87q-2 -38 -8 -51.5t-29 -34.5q-17 -17 -27 -22q-8 -4 -33 -21.5t-37 -27.5l-17 -13q-4 0 -61 -51q-63 -56 -63 -64l1 -1h1q3 0 29 12q24 13 59 21q27 6 43 12q10 5 52 5q41 0 51 -5q3 -2 11.5 -5t10.5 -4q19 -7 28.5 -16.5 t26.5 -38.5q17 -28 17 -75v-14q-2 -28 -5 -47.5t-5 -29t-7.5 -30.5t-9.5 -38q-3 -12 -8 -37t-7 -31q-12 -44 -15 -113q-2 -27 -4 -27t-3 4q-2 4 -2 15q0 13 -3 22q-4 11 -4 29q0 17 4 28q5 15 5 126v112l-8 23q-23 71 -51 84q-2 1 -6.5 3t-8 4t-5.5 3q-20 10 -60 10 q-43 0 -73 -11q-15 -6 -41 -14q-49 -17 -92 -45q-14 -9 -16 -9q-3 0 -16 -11q-11 -10 -17 -10q-2 0 -2 3q0 5 11 24t58 65q143 137 168 171l24 31q7 7 7 10t11 16q15 18 48.5 72t50.5 88q10 20 16 29zM553 682q1 4 4 4q6 0 12 -26q3 -11 6 -90q2 -74 4 -76t11 1t16 3 q23 0 41 -27q17 -28 17 -67q0 -32 -7 -74q-8 -47 -9 -115q-1 -67 -4 -67h-1q-6 6 -7.5 28t-3.5 120q-1 96 -3.5 118t-10.5 30q-4 4 -19 4t-29 -11q-21 -16 -36 -16q-7 0 -9 4t-2 18q0 17 8 36q15 36 29 101q2 12 2 29q0 47 -6 61q-5 8 -3 12z" />
  </symbol>


  <symbol id="g" viewBox="0 0 24 24">
    <path d="M540 581q18 2 73 2q51 0 61 -2q33 -7 47 -19q12 -9 19 -13q13 -7 28 -22.5t15 -21.5q0 -9 -12 -2q-2 1 -4 3q-10 7 -43.5 20.5t-53.5 18.5q-12 4 -47 9t-63.5 8t-30.5 3q-21 3 -30 3q-18 0 -18 2q0 5 59 11zM113 566q0 5 1 5l19 -17q19 -17 29 -22q44 -21 137 -21 q50 0 84 5q10 1 35.5 5t34.5 5q27 4 97 4q53 0 80 -3q65 -9 81 -16q9 -3 9 -7t-10 -8.5t-22.5 -8.5t-15.5 -7q-6 -4 -31 -14q-22 -8 -52.5 -23t-39.5 -21q-8 -6 -11 -6q-4 0 -13 -7q-6 -4 -31.5 -20.5t-32.5 -22.5q-11 -9 -13 -9q-6 0 -41 -37t-48 -57q-7 -11 -23 -39 t-21 -35q-25 -43 -47 -124q-4 -16 -12 -34q-11 -24 -11 -55q0 -5 1 -6q2 -2 9 3t7 9t16 25q12 16 34.5 55.5t30.5 49.5q9 11 9 14q0 4 7 11q15 20 18 25q10 15 46 54.5t50 50.5q28 22 75 50q4 2 34 13.5t35 14.5t31 8.5t39 6.5h5q9 0 9 -2t-20 -7q-18 -4 -52 -17.5 t-50 -22.5q-13 -8 -16 -8q-2 0 -15 -11l-30 -27q-15 -12 -36 -34.5t-21 -26.5q0 -3 -9 -12q-5 -5 -13 -16.5t-12 -15.5q-6 -6 -13 -20t-23 -37q-15 -22 -15 -26q0 -3 -8 -13q-13 -19 -15 -23q-1 -2 -4 -7t-5 -8.5t-3 -5.5q-4 -5 -14.5 -25.5t-14.5 -25.5q-14 -18 -19 -25 q-33 -45 -59 -62q-11 -7 -21 -7q-8 0 -12 5q-4 4 -5 32v14q0 75 6 87q2 4 10 34q5 23 37 102q3 11 11.5 24.5t11.5 24.5q4 13 19 38q12 21 12 24q-2 0 -4 -2q-28 -19 -29 -21q-12 -14 -23 -21q-15 -10 -55 -45.5t-49 -46.5l-31 -34q-30 -34 -37 -46q-18 -27 -18 -15 q0 17 62 109q36 55 110.5 129t109.5 91q8 4 24 13.5t29 14.5q19 8 24 11q4 5 15 8q5 1 48.5 20.5t48.5 20.5q8 2 13 6q9 6 100 38q33 11 33 13q0 6 -51 11q-28 2 -39 2q-37 0 -51 -7q-12 -6 -40 -13q-40 -10 -55 -20q-11 -7 -55 -26t-53 -24q-11 -8 -29 -14q-19 -6 -28 -11 q-16 -9 -63 -9q-11 0 -14 1q-8 2 -30.5 15t-36.5 25q-32 29 -47 65q-9 22 -9 30q0 4 2 4q1 0 14 -9q32 -22 62 -30q21 -7 44 -7q5 0 5 1t-11 6.5t-14 6.5q-11 2 -36.5 29t-25.5 37zM750 259q8 6 35.5 11.5t44.5 5.5h4q20 -2 21 -3q2 -1 2 -54q0 -58 -2 -69q-4 -27 -18 -47 q-11 -16 -16 -61q-6 -67 -12 -67q-4 0 -4 27q0 4 0.5 18t0.5 25q0 31 4 51q22 95 22 105q0 3 4 17l5 13l-9 7q-10 8 -20 8q-31 0 -110 -76q-24 -23 -36 -28.5t-40 -5.5q-55 0 -82 17q-27 18 -27 36q0 6 5 2q1 -2 4 -5q22 -23 47 -23q9 0 15 1q38 5 38 12q0 1 22 14 q28 15 58 44q5 5 22.5 13.5t21.5 11.5z" />
  </symbol>


  <symbol id="g" viewBox="0 0 24 24">
    <path d="M540 581q18 2 73 2q51 0 61 -2q33 -7 47 -19q12 -9 19 -13q13 -7 28 -22.5t15 -21.5q0 -9 -12 -2q-2 1 -4 3q-10 7 -43.5 20.5t-53.5 18.5q-12 4 -47 9t-63.5 8t-30.5 3q-21 3 -30 3q-18 0 -18 2q0 5 59 11zM113 566q0 5 1 5l19 -17q19 -17 29 -22q44 -21 137 -21 q50 0 84 5q10 1 35.5 5t34.5 5q27 4 97 4q53 0 80 -3q65 -9 81 -16q9 -3 9 -7t-10 -8.5t-22.5 -8.5t-15.5 -7q-6 -4 -31 -14q-22 -8 -52.5 -23t-39.5 -21q-8 -6 -11 -6q-4 0 -13 -7q-6 -4 -31.5 -20.5t-32.5 -22.5q-11 -9 -13 -9q-6 0 -41 -37t-48 -57q-7 -11 -23 -39 t-21 -35q-25 -43 -47 -124q-4 -16 -12 -34q-11 -24 -11 -55q0 -5 1 -6q2 -2 9 3t7 9t16 25q12 16 34.5 55.5t30.5 49.5q9 11 9 14q0 4 7 11q15 20 18 25q10 15 46 54.5t50 50.5q28 22 75 50q4 2 34 13.5t35 14.5t31 8.5t39 6.5h5q9 0 9 -2t-20 -7q-18 -4 -52 -17.5 t-50 -22.5q-13 -8 -16 -8q-2 0 -15 -11l-30 -27q-15 -12 -36 -34.5t-21 -26.5q0 -3 -9 -12q-5 -5 -13 -16.5t-12 -15.5q-6 -6 -13 -20t-23 -37q-15 -22 -15 -26q0 -3 -8 -13q-13 -19 -15 -23q-1 -2 -4 -7t-5 -8.5t-3 -5.5q-4 -5 -14.5 -25.5t-14.5 -25.5q-14 -18 -19 -25 q-33 -45 -59 -62q-11 -7 -21 -7q-8 0 -12 5q-4 4 -5 32v14q0 75 6 87q2 4 10 34q5 23 37 102q3 11 11.5 24.5t11.5 24.5q4 13 19 38q12 21 12 24q-2 0 -4 -2q-28 -19 -29 -21q-12 -14 -23 -21q-15 -10 -55 -45.5t-49 -46.5l-31 -34q-30 -34 -37 -46q-18 -27 -18 -15 q0 17 62 109q36 55 110.5 129t109.5 91q8 4 24 13.5t29 14.5q19 8 24 11q4 5 15 8q5 1 48.5 20.5t48.5 20.5q8 2 13 6q9 6 100 38q33 11 33 13q0 6 -51 11q-28 2 -39 2q-37 0 -51 -7q-12 -6 -40 -13q-40 -10 -55 -20q-11 -7 -55 -26t-53 -24q-11 -8 -29 -14q-19 -6 -28 -11 q-16 -9 -63 -9q-11 0 -14 1q-8 2 -30.5 15t-36.5 25q-32 29 -47 65q-9 22 -9 30q0 4 2 4q1 0 14 -9q32 -22 62 -30q21 -7 44 -7q5 0 5 1t-11 6.5t-14 6.5q-11 2 -36.5 29t-25.5 37zM750 259q8 6 35.5 11.5t44.5 5.5h4q20 -2 21 -3q2 -1 2 -54q0 -58 -2 -69q-4 -27 -18 -47 q-11 -16 -16 -61q-6 -67 -12 -67q-4 0 -4 27q0 4 0.5 18t0.5 25q0 31 4 51q22 95 22 105q0 3 4 17l5 13l-9 7q-10 8 -20 8q-31 0 -110 -76q-24 -23 -36 -28.5t-40 -5.5q-55 0 -82 17q-27 18 -27 36q0 6 5 2q1 -2 4 -5q22 -23 47 -23q9 0 15 1q38 5 38 12q0 1 22 14 q28 15 58 44q5 5 22.5 13.5t21.5 11.5z" />
  </symbol>


  <symbol id="h" viewBox="0 0 24 24">
    <path d="M480 636q4 5 9 -6q2 -6 2 -21q0 -59 -31 -118q-13 -25 -33.5 -47t-70.5 -67q-132 -117 -190 -207t-98 -184q-7 -16 -9 -16q-3 0 -3 15q0 22 4 55q7 80 24 130q23 68 70 117t150 110q66 40 73 45q27 21 47 49q31 47 51 126q4 18 5 19zM700 365q4 1 21 1q49 0 59 -5 q22 -10 32 -29q6 -12 6 -31t-6 -31q-14 -27 -53.5 -50.5t-202.5 -103.5q-96 -47 -135.5 -70t-61.5 -45q-30 -30 -37 -53q-1 -5 -0.5 -5.5t5.5 0.5q88 22 258 39q71 7 98 7q10 0 10 -1q0 -4 -69 -18q-160 -32 -295 -85q-68 -27 -93 -27q-20 0 -20 15q0 18 38.5 66t79.5 82 q68 55 195 114q116 53 153 80q41 28 41 56q0 12 -8 17q-6 5 -37 5q-54 -1 -128 -20.5t-133 -49.5q-87 -44 -154 -101q-7 -6 -10.5 -7.5t-4.5 0.5q0 10 60 62q87 76 242 143q71 30 150 45zM746 149q10 7 22 7q31 0 42 -37q3 -9 3 -17q0 -24 -29 -38q-14 -6 -26 -6 q-23 0 -32 16q-5 10 -5 21q0 37 25 54z" />
  </symbol>


  <symbol id="h" viewBox="0 0 24 24">
    <path d="M480 636q4 5 9 -6q2 -6 2 -21q0 -59 -31 -118q-13 -25 -33.5 -47t-70.5 -67q-132 -117 -190 -207t-98 -184q-7 -16 -9 -16q-3 0 -3 15q0 22 4 55q7 80 24 130q23 68 70 117t150 110q66 40 73 45q27 21 47 49q31 47 51 126q4 18 5 19zM700 365q4 1 21 1q49 0 59 -5 q22 -10 32 -29q6 -12 6 -31t-6 -31q-14 -27 -53.5 -50.5t-202.5 -103.5q-96 -47 -135.5 -70t-61.5 -45q-30 -30 -37 -53q-1 -5 -0.5 -5.5t5.5 0.5q88 22 258 39q71 7 98 7q10 0 10 -1q0 -4 -69 -18q-160 -32 -295 -85q-68 -27 -93 -27q-20 0 -20 15q0 18 38.5 66t79.5 82 q68 55 195 114q116 53 153 80q41 28 41 56q0 12 -8 17q-6 5 -37 5q-54 -1 -128 -20.5t-133 -49.5q-87 -44 -154 -101q-7 -6 -10.5 -7.5t-4.5 0.5q0 10 60 62q87 76 242 143q71 30 150 45zM746 149q10 7 22 7q31 0 42 -37q3 -9 3 -17q0 -24 -29 -38q-14 -6 -26 -6 q-23 0 -32 16q-5 10 -5 21q0 37 25 54z" />
  </symbol>


  <symbol id="i" viewBox="0 0 24 24">
    <path d="M395 560q9 31 16 31q2 -2 1 -6.5t-7 -20.5q-15 -38 -36 -189q-10 -73 -10 -86q0 -7 2 -7q3 0 5 7q8 20 39.5 56.5t53.5 48.5q2 1 11.5 6.5t12.5 7.5q11 6 19 6q24 0 41 -34q5 -9 8 -34q5 -38 13 -41q2 -1 7 -1q14 0 27 10q7 5 15 23q9 17 11 17t2.5 -4t-1.5 -9.5t-4 -8.5 q-5 -7 -9 -20q-6 -23 -21 -30q-13 -7 -25 -7q-9 0 -15 3q-9 5 -23.5 17.5t-19.5 21.5q-5 8 -17.5 15t-21.5 7q-20 0 -59 -41t-48 -59q-4 -7 -7 -9q-4 -2 -58 -83q-5 -7 -14.5 -27t-12.5 -26q-4 -6 -6 -6q-1 0 -1 5q0 10 3 19q2 6 16.5 71t17.5 73q4 9 13 48t12 48 q10 31 17 55q9 33 12 36q2 4 2 8q0 17 20 64q17 38 19 45zM71 509q9 1 29 1q46 0 86 -7q54 -11 73 -55l5 -10t4 -8.5t2 -6.5t1.5 -9t0.5 -12v-19q0 -40 -11 -80q-8 -30 -18 -58t-16 -49q-2 -8 -5.5 -19.5t-6 -20t-3.5 -11.5q-13 -39 -13 -79q0 -55 27 -78q16 -15 37 -15 q22 0 76 18q47 15 50 15q2 0 26 8q41 14 94 14q56 0 75 -12q7 -5 12 -5t27 -9t35 -17q26 -16 49.5 -34.5t23.5 -23.5q0 -1 -2 -1q-3 0 -7 4q-3 4 -23.5 14.5t-24.5 10.5q-6 0 -13 6q-14 8 -53.5 16t-71.5 8q-3 0 -8.5 -0.5t-7.5 -0.5q-72 -7 -86 -19q-6 -4 -25 -14 q-39 -21 -55 -37q-17 -17 -56 -29q-6 -2 -15 -8q-5 -4 -51 -4q-43 0 -59 8l-20 10q-17 8 -42 53l-10 19v34q1 33 14 74q12 38 16 46q6 8 10 17t9 22.5t10 23.5q16 34 17 38q1 6 7 13q6 8 11 25q5 18 16 39q20 40 20 91q0 52 -20 63q-3 2 -18 14t-24 14q-46 19 -86 24 q-25 3 -25 5q0 1 13 3zM443 238q10 2 27 2q18 0 23 -5q1 -1 9.5 -7.5t16 -12.5t7.5 -8q0 -5 -30 -5q-4 0 -12 -0.5t-18.5 -1.5t-16.5 -1q-30 -2 -40.5 -6t-48.5 -29q-5 -3 -26 -22q-12 -12 -16 -12q-1 0 -1 1t8 12q8 10 8 11l13 19q14 18 36 33q43 28 61 32zM625 227 q17 17 17 10l-8 -12q-8 -12 -8 -15q0 -1 1 -1q2 0 10 7q15 14 40 14q10 0 25 -8t19 -15q2 -5 8.5 -13t6.5 -14q0 -9 -8 -22q-8 -14 -22.5 -26t-25.5 -15q-8 -3 -15 1t-13 4q-7 0 -22 10q-25 17 -25 48q0 26 20 47z" />
  </symbol>


  <symbol id="i" viewBox="0 0 24 24">
    <path d="M395 560q9 31 16 31q2 -2 1 -6.5t-7 -20.5q-15 -38 -36 -189q-10 -73 -10 -86q0 -7 2 -7q3 0 5 7q8 20 39.5 56.5t53.5 48.5q2 1 11.5 6.5t12.5 7.5q11 6 19 6q24 0 41 -34q5 -9 8 -34q5 -38 13 -41q2 -1 7 -1q14 0 27 10q7 5 15 23q9 17 11 17t2.5 -4t-1.5 -9.5t-4 -8.5 q-5 -7 -9 -20q-6 -23 -21 -30q-13 -7 -25 -7q-9 0 -15 3q-9 5 -23.5 17.5t-19.5 21.5q-5 8 -17.5 15t-21.5 7q-20 0 -59 -41t-48 -59q-4 -7 -7 -9q-4 -2 -58 -83q-5 -7 -14.5 -27t-12.5 -26q-4 -6 -6 -6q-1 0 -1 5q0 10 3 19q2 6 16.5 71t17.5 73q4 9 13 48t12 48 q10 31 17 55q9 33 12 36q2 4 2 8q0 17 20 64q17 38 19 45zM71 509q9 1 29 1q46 0 86 -7q54 -11 73 -55l5 -10t4 -8.5t2 -6.5t1.5 -9t0.5 -12v-19q0 -40 -11 -80q-8 -30 -18 -58t-16 -49q-2 -8 -5.5 -19.5t-6 -20t-3.5 -11.5q-13 -39 -13 -79q0 -55 27 -78q16 -15 37 -15 q22 0 76 18q47 15 50 15q2 0 26 8q41 14 94 14q56 0 75 -12q7 -5 12 -5t27 -9t35 -17q26 -16 49.5 -34.5t23.5 -23.5q0 -1 -2 -1q-3 0 -7 4q-3 4 -23.5 14.5t-24.5 10.5q-6 0 -13 6q-14 8 -53.5 16t-71.5 8q-3 0 -8.5 -0.5t-7.5 -0.5q-72 -7 -86 -19q-6 -4 -25 -14 q-39 -21 -55 -37q-17 -17 -56 -29q-6 -2 -15 -8q-5 -4 -51 -4q-43 0 -59 8l-20 10q-17 8 -42 53l-10 19v34q1 33 14 74q12 38 16 46q6 8 10 17t9 22.5t10 23.5q16 34 17 38q1 6 7 13q6 8 11 25q5 18 16 39q20 40 20 91q0 52 -20 63q-3 2 -18 14t-24 14q-46 19 -86 24 q-25 3 -25 5q0 1 13 3zM443 238q10 2 27 2q18 0 23 -5q1 -1 9.5 -7.5t16 -12.5t7.5 -8q0 -5 -30 -5q-4 0 -12 -0.5t-18.5 -1.5t-16.5 -1q-30 -2 -40.5 -6t-48.5 -29q-5 -3 -26 -22q-12 -12 -16 -12q-1 0 -1 1t8 12q8 10 8 11l13 19q14 18 36 33q43 28 61 32zM625 227 q17 17 17 10l-8 -12q-8 -12 -8 -15q0 -1 1 -1q2 0 10 7q15 14 40 14q10 0 25 -8t19 -15q2 -5 8.5 -13t6.5 -14q0 -9 -8 -22q-8 -14 -22.5 -26t-25.5 -15q-8 -3 -15 1t-13 4q-7 0 -22 10q-25 17 -25 48q0 26 20 47z" />
  </symbol>


  <symbol id="l" viewBox="0 0 24 24">
    <path d="M703 568q32 10 40 10q3 0 3 -2l-5 -5q-47 -34 -83 -64q-146 -121 -186.5 -158t-91.5 -94q-33 -37 -38 -37q-1 0 -1 1q0 2 49 80q25 40 25 41t20.5 34.5t20.5 35.5h-1q-7 0 -54.5 -34t-85.5 -66q-74 -63 -114 -108q-28 -30 -59.5 -48t-54.5 -18q-19 0 -26 13q-4 7 -4 29 q0 26 5 45q18 76 76 168l16 26l16 2q5 1 11 1q7 0 7 -3t-10 -11q-18 -16 -36.5 -65.5t-18.5 -80.5q0 -18 6 -19h1q24 0 179 116q81 61 98 71q80 52 144 82t152 58zM535 309q15 3 36 3q41 0 68 -8q88 -29 116 -134q7 -28 7 -76q0 -53 -6 -75q-17 -57 -49.5 -85t-94.5 -29 q-30 0 -49 9q-64 31 -104 126q-9 21 -9 28q0 2 1 2q4 0 32 -26q39 -38 75 -50q24 -8 55 -8q18 0 24 2q42 10 60 63q6 19 6 61q0 41 -7 64q-12 37 -40 63t-64 34q-14 3 -33 3q-49 0 -88 -17q-3 -1 -16 -7.5l-19 -9.5q-24 -11 -29 -11q-3 0 -3 2q0 9 42 37q42 29 89 39z" />
  </symbol>


  <symbol id="l" viewBox="0 0 24 24">
    <path d="M703 568q32 10 40 10q3 0 3 -2l-5 -5q-47 -34 -83 -64q-146 -121 -186.5 -158t-91.5 -94q-33 -37 -38 -37q-1 0 -1 1q0 2 49 80q25 40 25 41t20.5 34.5t20.5 35.5h-1q-7 0 -54.5 -34t-85.5 -66q-74 -63 -114 -108q-28 -30 -59.5 -48t-54.5 -18q-19 0 -26 13q-4 7 -4 29 q0 26 5 45q18 76 76 168l16 26l16 2q5 1 11 1q7 0 7 -3t-10 -11q-18 -16 -36.5 -65.5t-18.5 -80.5q0 -18 6 -19h1q24 0 179 116q81 61 98 71q80 52 144 82t152 58zM535 309q15 3 36 3q41 0 68 -8q88 -29 116 -134q7 -28 7 -76q0 -53 -6 -75q-17 -57 -49.5 -85t-94.5 -29 q-30 0 -49 9q-64 31 -104 126q-9 21 -9 28q0 2 1 2q4 0 32 -26q39 -38 75 -50q24 -8 55 -8q18 0 24 2q42 10 60 63q6 19 6 61q0 41 -7 64q-12 37 -40 63t-64 34q-14 3 -33 3q-49 0 -88 -17q-3 -1 -16 -7.5l-19 -9.5q-24 -11 -29 -11q-3 0 -3 2q0 9 42 37q42 29 89 39z" />
  </symbol>


  <symbol id="m" viewBox="0 0 24 24">
    <path d="M225 651q1 0 30.5 -13t31.5 -13q5 0 25 -9q13 -6 45.5 -14t41.5 -11q17 -7 58 -7q13 0 37 2q58 6 99 36q16 12 45.5 40.5t44.5 46.5q18 22 18 17q0 -2 -32.5 -49t-49.5 -69q-42 -55 -100 -64q-13 -2 -26 -8q-15 -6 -33 -6t-46 6q-36 7 -52 8q-11 1 -38.5 5t-41.5 4t-26 4 q-11 5 -24 5q-4 0 -20 -2q-44 -8 -44 -41q0 -13 4 -26q15 -54 15 -143q0 -62 -3.5 -90t-17.5 -82q-11 -46 -11 -70q0 -20 6 -30q9 -16 21.5 -22t45.5 -11q26 -4 34 -8q15 -7 35 -28.5t32 -43.5q7 -13 8 -49v-13q0 -44 -9 -56q-3 -3 -3 0t1 11v7q0 25 -11 55.5t-26 42.5 q-28 25 -72 25q-2 0 -7 -0.5t-8 -0.5t-8.5 -0.5t-7.5 -0.5q-18 0 -27 10t-24 45q-12 28 -20 45q-7 17 -7 35q0 39 13 80q5 17 5 33q0 19 -1 34q-4 99 -16 137q-19 63 -19 94q0 8 2 28q1 8 1 25q0 12 -5 75q-2 24 -16 50q-13 24 -13 25q0 2 12 2q48 0 81 -12q19 -7 32 -15 q18 -11 21 -11q1 0 9.5 -7.5t10.5 -7.5zM872 425q30 15 32 15l1 -1q0 -1 -37 -28q-64 -48 -99 -101.5t-113 -218.5q-49 -105 -65 -135t-24 -30q-5 0 -7 3q-3 5 -13 64q-25 140 -51 205t-76 115q-68 68 -156 74q-27 2 -27 4q0 1 8 1q41 0 83 -7q82 -14 131.5 -46t88.5 -94 q28 -43 43 -64q22 -33 30 -33q3 0 8 5q3 3 42 66q43 69 68.5 102t57.5 58q26 20 75 46zM435 113q17 5 28 5q19 0 30 -11q7 -9 7 -30q0 -11 -3 -17q-3 -8 -17 -19.5t-21 -11.5q-20 0 -39 17l-12 11v21q1 19 5 24t22 11z" />
  </symbol>


  <symbol id="m" viewBox="0 0 24 24">
    <path d="M225 651q1 0 30.5 -13t31.5 -13q5 0 25 -9q13 -6 45.5 -14t41.5 -11q17 -7 58 -7q13 0 37 2q58 6 99 36q16 12 45.5 40.5t44.5 46.5q18 22 18 17q0 -2 -32.5 -49t-49.5 -69q-42 -55 -100 -64q-13 -2 -26 -8q-15 -6 -33 -6t-46 6q-36 7 -52 8q-11 1 -38.5 5t-41.5 4t-26 4 q-11 5 -24 5q-4 0 -20 -2q-44 -8 -44 -41q0 -13 4 -26q15 -54 15 -143q0 -62 -3.5 -90t-17.5 -82q-11 -46 -11 -70q0 -20 6 -30q9 -16 21.5 -22t45.5 -11q26 -4 34 -8q15 -7 35 -28.5t32 -43.5q7 -13 8 -49v-13q0 -44 -9 -56q-3 -3 -3 0t1 11v7q0 25 -11 55.5t-26 42.5 q-28 25 -72 25q-2 0 -7 -0.5t-8 -0.5t-8.5 -0.5t-7.5 -0.5q-18 0 -27 10t-24 45q-12 28 -20 45q-7 17 -7 35q0 39 13 80q5 17 5 33q0 19 -1 34q-4 99 -16 137q-19 63 -19 94q0 8 2 28q1 8 1 25q0 12 -5 75q-2 24 -16 50q-13 24 -13 25q0 2 12 2q48 0 81 -12q19 -7 32 -15 q18 -11 21 -11q1 0 9.5 -7.5t10.5 -7.5zM872 425q30 15 32 15l1 -1q0 -1 -37 -28q-64 -48 -99 -101.5t-113 -218.5q-49 -105 -65 -135t-24 -30q-5 0 -7 3q-3 5 -13 64q-25 140 -51 205t-76 115q-68 68 -156 74q-27 2 -27 4q0 1 8 1q41 0 83 -7q82 -14 131.5 -46t88.5 -94 q28 -43 43 -64q22 -33 30 -33q3 0 8 5q3 3 42 66q43 69 68.5 102t57.5 58q26 20 75 46zM435 113q17 5 28 5q19 0 30 -11q7 -9 7 -30q0 -11 -3 -17q-3 -8 -17 -19.5t-21 -11.5q-20 0 -39 17l-12 11v21q1 19 5 24t22 11z" />
  </symbol>


  <symbol id="n" viewBox="0 0 24 24">
    <path d="M246 510l4 22q4 23 8 45t5 22q3 0 3 -96q0 -59 -1 -88q-3 -100 -10 -130q-5 -22 -40 -58q-16 -16 -16 -21q0 -3 -4 -5q-7 -4 -40 -60q-14 -23 -29 -58t-15 -42q0 -8 21 11q77 68 116 87q8 4 18 11t19 11q11 5 29 16t33 17q27 12 33 16t9 15.5t7 51.5q5 40 13 66t29 67 q9 17 31 50.5t30 42.5q5 5 5 19q0 13 -5 17t-22 5h-10q-27 0 -63 -15q-22 -11 -28 -9q-5 1 -2 2q1 1 4 2q10 5 16 11q20 18 82 42q36 14 54 14q22 0 45 -18q21 -15 21 -34q0 -3 -2 -11q-4 -15 -19 -38t-15 -29q0 -2 -6 -8q-2 -1 -33 -51q-17 -24 -41 -83t-24 -74q0 -3 1 -3 q2 -2 14 2q19 6 77 13q27 3 50 8q22 4 38 4q13 0 16 -2q5 -3 53 -8q86 -9 104 -18l2 -2q0 -3 -77 -6q-79 -3 -120 -9t-102 -23q-42 -11 -54 -19t-12 -24q0 -13 7.5 -43t11.5 -34q5 -7 7 -14q11 -33 23 -45q6 -6 9 -14q2 -6 18 -27.5t18 -24.5q3 -7 10.5 -13.5t10.5 -11.5 q9 -13 34 -40q26 -28 26 -30q0 -1 -1 -1q-9 0 -54.5 39t-62.5 62q-3 3 -10.5 12.5t-10.5 13.5q-24 30 -49.5 75.5t-32.5 69.5q-6 22 -7 22q-5 0 -36 -12.5t-42 -19.5q-4 -2 -45 -24t-49 -29t-43.5 -35t-52.5 -44q-41 -37 -52 -37q-7 0 -12 11q-4 8 -4 22q0 32 20 77 q5 11 15.5 37t16.5 37q8 14 13 29q6 18 9 21q2 2 19 40q5 11 16 36.5t14 31.5q39 89 59 185q4 24 7 30zM654 455q8 5 13 5q7 0 21 -12q12 -11 16 -27q2 -10 2 -16q0 -17 -10 -34q-5 -8 -14.5 -16.5t-13.5 -8.5t-17.5 11.5t-13.5 15.5q0 3 -4 7q-4 3 -4 19q0 39 25 56z" />
  </symbol>


  <symbol id="n" viewBox="0 0 24 24">
    <path d="M246 510l4 22q4 23 8 45t5 22q3 0 3 -96q0 -59 -1 -88q-3 -100 -10 -130q-5 -22 -40 -58q-16 -16 -16 -21q0 -3 -4 -5q-7 -4 -40 -60q-14 -23 -29 -58t-15 -42q0 -8 21 11q77 68 116 87q8 4 18 11t19 11q11 5 29 16t33 17q27 12 33 16t9 15.5t7 51.5q5 40 13 66t29 67 q9 17 31 50.5t30 42.5q5 5 5 19q0 13 -5 17t-22 5h-10q-27 0 -63 -15q-22 -11 -28 -9q-5 1 -2 2q1 1 4 2q10 5 16 11q20 18 82 42q36 14 54 14q22 0 45 -18q21 -15 21 -34q0 -3 -2 -11q-4 -15 -19 -38t-15 -29q0 -2 -6 -8q-2 -1 -33 -51q-17 -24 -41 -83t-24 -74q0 -3 1 -3 q2 -2 14 2q19 6 77 13q27 3 50 8q22 4 38 4q13 0 16 -2q5 -3 53 -8q86 -9 104 -18l2 -2q0 -3 -77 -6q-79 -3 -120 -9t-102 -23q-42 -11 -54 -19t-12 -24q0 -13 7.5 -43t11.5 -34q5 -7 7 -14q11 -33 23 -45q6 -6 9 -14q2 -6 18 -27.5t18 -24.5q3 -7 10.5 -13.5t10.5 -11.5 q9 -13 34 -40q26 -28 26 -30q0 -1 -1 -1q-9 0 -54.5 39t-62.5 62q-3 3 -10.5 12.5t-10.5 13.5q-24 30 -49.5 75.5t-32.5 69.5q-6 22 -7 22q-5 0 -36 -12.5t-42 -19.5q-4 -2 -45 -24t-49 -29t-43.5 -35t-52.5 -44q-41 -37 -52 -37q-7 0 -12 11q-4 8 -4 22q0 32 20 77 q5 11 15.5 37t16.5 37q8 14 13 29q6 18 9 21q2 2 19 40q5 11 16 36.5t14 31.5q39 89 59 185q4 24 7 30zM654 455q8 5 13 5q7 0 21 -12q12 -11 16 -27q2 -10 2 -16q0 -17 -10 -34q-5 -8 -14.5 -16.5t-13.5 -8.5t-17.5 11.5t-13.5 15.5q0 3 -4 7q-4 3 -4 19q0 39 25 56z" />
  </symbol>


  <symbol id="o" viewBox="0 0 24 24">
    <path d="M150 668q0 5 8 0q15 -9 25 -40q2 -5 4.5 -10l3.5 -7t2 -7t1 -12.5v-21.5q0 -39 -6 -49q-6 -11 -9.5 -21t-8.5 -25t-10 -29q-12 -27 -20 -58q-3 -10 -6 -19t-4 -13.5t-1.5 -16t-0.5 -35.5q0 -51 4 -58q4 -5 6 -15q2 -7 11.5 -22.5t15.5 -20.5q5 -5 11 -15q3 -6 21 -21 q15 -11 15 -15q0 -2 -4 -2q-8 0 -28 6.5t-30 12.5q-3 2 -11 7.5t-12 7.5q-18 11 -37 37.5t-28 52.5q-6 18 -6 65q0 43 3.5 61t15.5 36q11 16 11 17q0 2 11 22q2 4 10 17t10 18q7 15 14 24q5 7 13.5 23.5t8.5 20.5q0 2 5 9q5 8 5 37q0 32 -6 43q-7 12 -7 16zM600 552 q6 1 18 1q43 0 54 -23q5 -9 5 -28q0 -37 -15 -58q-7 -8 -16 -27q-12 -20 -117 -126q-170 -172 -182 -191q-12 -16 -28 -32q-53 -55 -86 -105q-7 -12 -15 -20q-6 -6 -18.5 -26t-16.5 -24q-10 -12 -13 -20q-4 -9 -11.5 -16t-11.5 -14q-7 -14 -17 -28.5t-13 -14.5q-1 0 -1 2 q0 4 25 54q11 22 16 27q6 6 6 11q0 2 8.5 17t18 30t10.5 16q1 5 12 20q14 19 18 29q4 8 7 13.5t7.5 11.5t7.5 11q4 10 13 17q6 6 17.5 25t17.5 25q10 10 10 14q0 3 11 16q9 10 20 26q8 11 16 19.5t18 21.5q19 24 51 62q47 55 64.5 84t17.5 52v6q-1 10 -6 18.5t-10 8.5 q-3 0 -34 -13.5t-35 -17.5q-8 -6 -18 -11q-30 -15 -59 -40q-20 -16 -21 -16t-43 -42q-67 -67 -82 -67q-8 0 -16 8q-9 7 -11 25q-1 7 -1 28q0 43 5 73q3 15 18.5 48.5t19.5 33.5q3 -1 2 -8.5t-4 -13.5q-4 -10 -4 -51q0 -43 4 -47t4 -6q0 -3 3 -6q2 -2 4 -2q10 0 80 62 q47 41 49 42q3 2 12.5 10.5t15.5 11.5t19 14q12 11 93 57q62 36 107 43z" />
  </symbol>


  <symbol id="o" viewBox="0 0 24 24">
    <path d="M150 668q0 5 8 0q15 -9 25 -40q2 -5 4.5 -10l3.5 -7t2 -7t1 -12.5v-21.5q0 -39 -6 -49q-6 -11 -9.5 -21t-8.5 -25t-10 -29q-12 -27 -20 -58q-3 -10 -6 -19t-4 -13.5t-1.5 -16t-0.5 -35.5q0 -51 4 -58q4 -5 6 -15q2 -7 11.5 -22.5t15.5 -20.5q5 -5 11 -15q3 -6 21 -21 q15 -11 15 -15q0 -2 -4 -2q-8 0 -28 6.5t-30 12.5q-3 2 -11 7.5t-12 7.5q-18 11 -37 37.5t-28 52.5q-6 18 -6 65q0 43 3.5 61t15.5 36q11 16 11 17q0 2 11 22q2 4 10 17t10 18q7 15 14 24q5 7 13.5 23.5t8.5 20.5q0 2 5 9q5 8 5 37q0 32 -6 43q-7 12 -7 16zM600 552 q6 1 18 1q43 0 54 -23q5 -9 5 -28q0 -37 -15 -58q-7 -8 -16 -27q-12 -20 -117 -126q-170 -172 -182 -191q-12 -16 -28 -32q-53 -55 -86 -105q-7 -12 -15 -20q-6 -6 -18.5 -26t-16.5 -24q-10 -12 -13 -20q-4 -9 -11.5 -16t-11.5 -14q-7 -14 -17 -28.5t-13 -14.5q-1 0 -1 2 q0 4 25 54q11 22 16 27q6 6 6 11q0 2 8.5 17t18 30t10.5 16q1 5 12 20q14 19 18 29q4 8 7 13.5t7.5 11.5t7.5 11q4 10 13 17q6 6 17.5 25t17.5 25q10 10 10 14q0 3 11 16q9 10 20 26q8 11 16 19.5t18 21.5q19 24 51 62q47 55 64.5 84t17.5 52v6q-1 10 -6 18.5t-10 8.5 q-3 0 -34 -13.5t-35 -17.5q-8 -6 -18 -11q-30 -15 -59 -40q-20 -16 -21 -16t-43 -42q-67 -67 -82 -67q-8 0 -16 8q-9 7 -11 25q-1 7 -1 28q0 43 5 73q3 15 18.5 48.5t19.5 33.5q3 -1 2 -8.5t-4 -13.5q-4 -10 -4 -51q0 -43 4 -47t4 -6q0 -3 3 -6q2 -2 4 -2q10 0 80 62 q47 41 49 42q3 2 12.5 10.5t15.5 11.5t19 14q12 11 93 57q62 36 107 43z" />
  </symbol>


  <symbol id="q" viewBox="0 0 24 24">
    <path d="M732 710q30 5 60 5q24 0 44 -4q68 -17 68 -68v-6q-2 -25 -17.5 -46.5t-57.5 -57.5q-37 -32 -54.5 -51.5t-30.5 -46.5q-19 -38 -23 -78q-1 -8 -1 -25q0 -89 49 -193q3 -7 6 -13.5t4.5 -10.5t0.5 -4q-3 0 -43.5 46t-60.5 71q-64 81 -64 143q0 20 8 39q12 24 80 70 q121 83 156 129q15 21 15 35q0 15 -14 29q-15 15 -39 15q-5 0 -23 -2q-29 -5 -60.5 -21t-88.5 -54q-85 -57 -162 -74q-27 -6 -74 -6q-74 0 -117 12q-10 3 -10 4q0 3 52 3q57 0 83.5 7.5t59.5 30.5q138 101 254 122zM367 374q1 3 5.5 33t9 57t5.5 27t3 -59q3 -102 10.5 -138 t28.5 -46q14 -7 27 -7q28 0 74 27q29 17 38 17q11 0 11 -20q0 -21 -26 -67q-18 -33 -18 -44q0 -10 13.5 -14.5t53.5 -8.5q48 -4 64.5 -12.5t45.5 -44.5q30 -37 46.5 -50t35.5 -13q61 0 95 101q15 44 28 105q1 3 1.5 4t2.5 0q2 -2 2 -25q0 -74 -8 -114q-12 -57 -40 -92 t-60 -35q-38 0 -78 44q-46 53 -71 65q-34 17 -81 17h-21q-28 -1 -91 -1q-55 0 -55 9q0 5 16 16q44 31 52 72q2 10 -2.5 11t-17.5 -6q-34 -16 -53 -16q-25 0 -28 27q-13 93 -20 93q-4 0 -44.5 -43.5t-62.5 -70.5q-63 -77 -63 -85q0 -2 23 -12q72 -31 114 -82q33 -40 61 -122 q14 -42 14 -47v-1q-3 0 -15 21q-38 61 -79 101q-57 54 -162 91q-56 20 -74.5 29t-18.5 16t21 15q74 30 130 77q79 67 140 153q11 15 18 48zM202 440q9 36 54 36q6 0 20 -2q8 -2 17 -11l9 -8l-1 -36q-2 -41 -11 -59.5t-28 -18.5q-9 0 -14 4t-17 22q-3 4 -12.5 16.5t-14 22.5 t-4.5 21q0 3 2 13z" />
  </symbol>


  <symbol id="q" viewBox="0 0 24 24">
    <path d="M732 710q30 5 60 5q24 0 44 -4q68 -17 68 -68v-6q-2 -25 -17.5 -46.5t-57.5 -57.5q-37 -32 -54.5 -51.5t-30.5 -46.5q-19 -38 -23 -78q-1 -8 -1 -25q0 -89 49 -193q3 -7 6 -13.5t4.5 -10.5t0.5 -4q-3 0 -43.5 46t-60.5 71q-64 81 -64 143q0 20 8 39q12 24 80 70 q121 83 156 129q15 21 15 35q0 15 -14 29q-15 15 -39 15q-5 0 -23 -2q-29 -5 -60.5 -21t-88.5 -54q-85 -57 -162 -74q-27 -6 -74 -6q-74 0 -117 12q-10 3 -10 4q0 3 52 3q57 0 83.5 7.5t59.5 30.5q138 101 254 122zM367 374q1 3 5.5 33t9 57t5.5 27t3 -59q3 -102 10.5 -138 t28.5 -46q14 -7 27 -7q28 0 74 27q29 17 38 17q11 0 11 -20q0 -21 -26 -67q-18 -33 -18 -44q0 -10 13.5 -14.5t53.5 -8.5q48 -4 64.5 -12.5t45.5 -44.5q30 -37 46.5 -50t35.5 -13q61 0 95 101q15 44 28 105q1 3 1.5 4t2.5 0q2 -2 2 -25q0 -74 -8 -114q-12 -57 -40 -92 t-60 -35q-38 0 -78 44q-46 53 -71 65q-34 17 -81 17h-21q-28 -1 -91 -1q-55 0 -55 9q0 5 16 16q44 31 52 72q2 10 -2.5 11t-17.5 -6q-34 -16 -53 -16q-25 0 -28 27q-13 93 -20 93q-4 0 -44.5 -43.5t-62.5 -70.5q-63 -77 -63 -85q0 -2 23 -12q72 -31 114 -82q33 -40 61 -122 q14 -42 14 -47v-1q-3 0 -15 21q-38 61 -79 101q-57 54 -162 91q-56 20 -74.5 29t-18.5 16t21 15q74 30 130 77q79 67 140 153q11 15 18 48zM202 440q9 36 54 36q6 0 20 -2q8 -2 17 -11l9 -8l-1 -36q-2 -41 -11 -59.5t-28 -18.5q-9 0 -14 4t-17 22q-3 4 -12.5 16.5t-14 22.5 t-4.5 21q0 3 2 13z" />
  </symbol>


  <symbol id="r" viewBox="0 0 24 24">
    <path d="M145 645q-2 0 -12.5 6.5t-13.5 6.5t-3 3q0 2 7 2q19 0 72 -14t81 -27q27 -11 41 -15q18 -5 26 -11q86 -43 101 -53q3 -2 12.5 -9t14.5 -10q51 -32 118.5 -95.5t98.5 -108.5q7 -10 7 -13q0 -1 -1 -1q-2 0 -15 10q-9 7 -28 22t-29 22q-14 12 -18 12q-1 0 -9 6 q-22 16 -60 37q-41 22 -61 27q6 -13 45 -62q58 -71 78 -89q27 -22 30 -25q9 -9 13 -9q2 0 7 -7q4 -5 4 -13q0 -7 -3 -34l-4 -41l7 -46q8 -51 12 -65q13 -37 17 -99q3 -38 3 -58q0 -23 -5 -30q-4 -6 -18 -3q-22 5 -43 21q-15 11 -47 41.5t-32 34.5q0 6 -4 7q-5 3 -21.5 28.5 t-22.5 39.5q-8 18 -11 21q-3 2 -16 33t-16 33q-3 3 -13.5 23t-12.5 23q-15 20 -41.5 50t-40.5 39q-50 40 -107 60q-23 8 -49 8q-43 0 -71 -18q-28 -19 -42 -47q-4 -9 -8 -13q-5 -3 -4 2q0 2 2 6q4 9 9 24q8 24 32.5 49t46.5 32q20 6 56 6q89 0 112 -18q4 -3 18 -10 q31 -14 74 -55t62 -73q1 -1 4.5 -5.5t5.5 -6.5q6 -6 23.5 -32t33 -50.5t16.5 -25.5q3 -5 11.5 -18.5t15.5 -24l15 -22.5t14.5 -18.5t9.5 -6.5q4 0 4 12q0 34 -10 64q-2 10 -15 51q-49 165 -121 256q-7 9 -12 18q-10 20 -70 80q-21 21 -53 48.5t-35 27.5q-1 0 -34 22 q-23 15 -72.5 41.5t-55.5 26.5zM231 108q12 3 30 3q15 0 26 -4q13 -4 21.5 -19.5t8.5 -31.5q0 -9 -3 -15q-2 -6 -12.5 -16.5t-19.5 -15.5q-8 -5 -26 -5t-28 5q-39 18 -39 46q0 10 6 22q4 10 15.5 19.5t20.5 11.5z" />
  </symbol>


  <symbol id="r" viewBox="0 0 24 24">
    <path d="M145 645q-2 0 -12.5 6.5t-13.5 6.5t-3 3q0 2 7 2q19 0 72 -14t81 -27q27 -11 41 -15q18 -5 26 -11q86 -43 101 -53q3 -2 12.5 -9t14.5 -10q51 -32 118.5 -95.5t98.5 -108.5q7 -10 7 -13q0 -1 -1 -1q-2 0 -15 10q-9 7 -28 22t-29 22q-14 12 -18 12q-1 0 -9 6 q-22 16 -60 37q-41 22 -61 27q6 -13 45 -62q58 -71 78 -89q27 -22 30 -25q9 -9 13 -9q2 0 7 -7q4 -5 4 -13q0 -7 -3 -34l-4 -41l7 -46q8 -51 12 -65q13 -37 17 -99q3 -38 3 -58q0 -23 -5 -30q-4 -6 -18 -3q-22 5 -43 21q-15 11 -47 41.5t-32 34.5q0 6 -4 7q-5 3 -21.5 28.5 t-22.5 39.5q-8 18 -11 21q-3 2 -16 33t-16 33q-3 3 -13.5 23t-12.5 23q-15 20 -41.5 50t-40.5 39q-50 40 -107 60q-23 8 -49 8q-43 0 -71 -18q-28 -19 -42 -47q-4 -9 -8 -13q-5 -3 -4 2q0 2 2 6q4 9 9 24q8 24 32.5 49t46.5 32q20 6 56 6q89 0 112 -18q4 -3 18 -10 q31 -14 74 -55t62 -73q1 -1 4.5 -5.5t5.5 -6.5q6 -6 23.5 -32t33 -50.5t16.5 -25.5q3 -5 11.5 -18.5t15.5 -24l15 -22.5t14.5 -18.5t9.5 -6.5q4 0 4 12q0 34 -10 64q-2 10 -15 51q-49 165 -121 256q-7 9 -12 18q-10 20 -70 80q-21 21 -53 48.5t-35 27.5q-1 0 -34 22 q-23 15 -72.5 41.5t-55.5 26.5zM231 108q12 3 30 3q15 0 26 -4q13 -4 21.5 -19.5t8.5 -31.5q0 -9 -3 -15q-2 -6 -12.5 -16.5t-19.5 -15.5q-8 -5 -26 -5t-28 5q-39 18 -39 46q0 10 6 22q4 10 15.5 19.5t20.5 11.5z" />
  </symbol>


  <symbol id="s" viewBox="0 0 24 24">
    <path d="M280 669q2 4 5 -4q1 -4 1 -9q0 -7 2 -9q6 -4 11 -69q0 -9 2 -26.5t2 -26.5q0 -25 -12 -46q-6 -10 -10 -27q-7 -34 -89 -123q-73 -78 -81 -78q-1 0 -1 1q0 9 21 32q13 15 18 26q6 11 12.5 19t12.5 19t11.5 18.5t12.5 21.5q11 23 20 33q9 13 20.5 38t11.5 32q0 6 3.5 27.5 t8 44.5t5.5 27q1 11 6.5 43.5t6.5 35.5zM372 457q4 1 15 1q19 0 24 -5q6 -7 6 -61q0 -83 -10 -96q-3 -3 -7 -24q-8 -43 -34 -69q-34 -34 -78.5 -71t-60.5 -52q-10 -10 -18 -13q-9 -4 -11 -9q-3 -5 -21 -19q-32 -25 -67 -73q-3 -5 -7 -10.5t-6 -8.5l-2 -3q0 -2 36.5 11.5 t79.5 30t52 19.5q35 11 40 14q9 5 59 5q26 0 41.5 -1.5t22 -3t20.5 -6t27 -8.5q30 -8 32 -10q12 -10 55 -26q53 -20 78 -31q14 -6 34 -12q11 -3 12 -5q-2 -2 -16 -2q-30 0 -84 6t-71 12q-42 14 -155 14h-27q-60 -2 -109 -17q-35 -10 -46 -13q-23 -6 -28 -10q-10 -7 -23 -7 q-9 0 -20 4q-3 1 -31 8q-15 3 -15 9q0 13 29 57q11 17 114 118q105 105 111 115q1 4 10 15q8 11 21 35q17 36 17 55q0 7 -1 10q-3 13 -26 13h-6q-31 -5 -68 -56q-16 -22 -57.5 -64t-53.5 -49q-7 -4 -19 -12t-29 -10q-13 -2 -18 1q-9 7 8 11q14 3 42.5 24t45.5 42 q6 7 18 25.5t27 42t22 34.5q39 60 44 66q11 13 11 16q0 8 26 23.5t45 19.5zM516 390q10 6 11 3q0 -2 -3 -6q-2 -3 -9 -17q-5 -9 -1 -19q7 -15 29 -26q11 -5 98 -16q76 -9 127 -26q21 -8 37 -24q17 -17 17 -23t-10 -16t-21 -15q-18 -8 -130 -11q-91 -2 -107 -7q-6 -2 -22 -5 t-22 -6l-2 -2q0 -1 37 -4q52 -3 69 -15q10 -7 16 -7q7 0 24.5 -10.5t17.5 -15.5q0 -1 -3 -1q-5 0 -29 2q-45 6 -95 6q-31 0 -52 -3q-75 -9 -90 -22q-6 -6 -24 -14q-60 -30 -78 -44q-37 -32 -43 -32q-1 0 -1 1q0 15 82 95q52 51 80 68q78 47 114 54q9 2 32 9t29 8q16 3 16 7 q0 3 -12 6q-60 19 -85 35q-24 16 -31 39q-3 9 2 13q5 5 5 9t10 16t17 16z" />
  </symbol>


  <symbol id="s" viewBox="0 0 24 24">
    <path d="M280 669q2 4 5 -4q1 -4 1 -9q0 -7 2 -9q6 -4 11 -69q0 -9 2 -26.5t2 -26.5q0 -25 -12 -46q-6 -10 -10 -27q-7 -34 -89 -123q-73 -78 -81 -78q-1 0 -1 1q0 9 21 32q13 15 18 26q6 11 12.5 19t12.5 19t11.5 18.5t12.5 21.5q11 23 20 33q9 13 20.5 38t11.5 32q0 6 3.5 27.5 t8 44.5t5.5 27q1 11 6.5 43.5t6.5 35.5zM372 457q4 1 15 1q19 0 24 -5q6 -7 6 -61q0 -83 -10 -96q-3 -3 -7 -24q-8 -43 -34 -69q-34 -34 -78.5 -71t-60.5 -52q-10 -10 -18 -13q-9 -4 -11 -9q-3 -5 -21 -19q-32 -25 -67 -73q-3 -5 -7 -10.5t-6 -8.5l-2 -3q0 -2 36.5 11.5 t79.5 30t52 19.5q35 11 40 14q9 5 59 5q26 0 41.5 -1.5t22 -3t20.5 -6t27 -8.5q30 -8 32 -10q12 -10 55 -26q53 -20 78 -31q14 -6 34 -12q11 -3 12 -5q-2 -2 -16 -2q-30 0 -84 6t-71 12q-42 14 -155 14h-27q-60 -2 -109 -17q-35 -10 -46 -13q-23 -6 -28 -10q-10 -7 -23 -7 q-9 0 -20 4q-3 1 -31 8q-15 3 -15 9q0 13 29 57q11 17 114 118q105 105 111 115q1 4 10 15q8 11 21 35q17 36 17 55q0 7 -1 10q-3 13 -26 13h-6q-31 -5 -68 -56q-16 -22 -57.5 -64t-53.5 -49q-7 -4 -19 -12t-29 -10q-13 -2 -18 1q-9 7 8 11q14 3 42.5 24t45.5 42 q6 7 18 25.5t27 42t22 34.5q39 60 44 66q11 13 11 16q0 8 26 23.5t45 19.5zM516 390q10 6 11 3q0 -2 -3 -6q-2 -3 -9 -17q-5 -9 -1 -19q7 -15 29 -26q11 -5 98 -16q76 -9 127 -26q21 -8 37 -24q17 -17 17 -23t-10 -16t-21 -15q-18 -8 -130 -11q-91 -2 -107 -7q-6 -2 -22 -5 t-22 -6l-2 -2q0 -1 37 -4q52 -3 69 -15q10 -7 16 -7q7 0 24.5 -10.5t17.5 -15.5q0 -1 -3 -1q-5 0 -29 2q-45 6 -95 6q-31 0 -52 -3q-75 -9 -90 -22q-6 -6 -24 -14q-60 -30 -78 -44q-37 -32 -43 -32q-1 0 -1 1q0 15 82 95q52 51 80 68q78 47 114 54q9 2 32 9t29 8q16 3 16 7 q0 3 -12 6q-60 19 -85 35q-24 16 -31 39q-3 9 2 13q5 5 5 9t10 16t17 16z" />
  </symbol>


  <symbol id="t" viewBox="0 0 24 24">
    <path d="M545 655q25 23 28 23q7 0 7 -21q0 -10 -2 -24.5t-3.5 -24.5t-2.5 -11q-4 -6 -4 -10q0 -6 -8.5 -26t-13.5 -25q-6 -6 -10 -14q-7 -13 -39.5 -46t-52.5 -47q-7 -5 -7 -2t7 10q10 10 31.5 38t24.5 35q2 4 12 17q3 5 7 11t6 10.5t1 4.5q-4 0 -33 -35q-10 -13 -58 -45 q-11 -7 -43 -7q-31 0 -46 5q-19 7 -75 7q-25 0 -30 -3q-12 -7 -2 -20q5 -5 12 -19q4 -8 28 -38.5t28 -37.5q10 -14 16 -20q8 -8 8 -9l12 -16q7 -8 18.5 -26t16.5 -25q9 -12 13 -19q6 -12 10 -16q9 -11 62 -111q25 -45 38 -78q9 -23 14 -33q5 -8 9 -26.5t8 -25.5 q1 -2 6.5 -22.5t8.5 -22.5q2 -1 3 -5t0.5 -7.5t-2.5 -3.5q-3 0 -10.5 15t-7.5 20q0 4 -29 61.5t-41 79.5q-4 7 -15 24t-14 22q-15 22 -15 26t-9 13q-5 5 -13 19t-14 20q-2 1 -19 24q-25 34 -90.5 92.5t-107.5 85.5q-21 14 -24 17q-7 7 -19 13q-19 10 -25 14q-11 8 -20 12 q-14 7 -14 12q0 7 27 10q62 4 107 15q100 24 123 36q6 3 25 9.5t27 12.5q12 8 15 8q5 0 30 12t31 17q6 4 15 9q12 5 39 25t45 37zM153 14q0 21 4 34t4 36q0 30 -12 71q-9 35 -33 96q-8 21 -13.5 32.5t-13.5 31.5q-11 28 -14 31t-10 19.5t-7 20.5q0 2 2 2t16.5 -22.5 t16.5 -28.5t8 -12q15 -19 27 -42q5 -8 15 -27t13 -24q23 -41 43 -91q2 -5 7 -16.5t6 -14.5t3.5 -13t4 -21t3.5 -30l2 -25l14 -14q15 -15 39 -27q26 -12 34 -12t19 12l-10 21q-10 20 -28 48.5t-25 41.5q-19 34 -27 47q-19 28 -19 37q0 3 17.5 -13.5t41 -38.5t32.5 -28 q3 -2 19.5 -14t23.5 -16t23.5 -21t18.5 -23q1 -3 4 -18.5t4 -18.5q4 -6 4 -14t-5 -25q-7 -21 -15 -27q-11 -8 -25 -8q-11 0 -21 5q-22 11 -69 11q-58 0 -86 19q-5 3 -22 24l-14 18v27zM501 372q4 1 18 1q29 0 40 -4q24 -7 38 -31q6 -11 6 -32t-8 -32q-6 -9 -15 -17.5 t-12 -8.5q-1 0 -3 -7q-3 -13 -33 -13q-2 0 -7 0.5t-8 0.5q-24 1 -35 8q-29 18 -36 36q-4 12 -4 28q0 15 3 22q5 15 22.5 30t33.5 19z" />
  </symbol>


  <symbol id="t" viewBox="0 0 24 24">
    <path d="M545 655q25 23 28 23q7 0 7 -21q0 -10 -2 -24.5t-3.5 -24.5t-2.5 -11q-4 -6 -4 -10q0 -6 -8.5 -26t-13.5 -25q-6 -6 -10 -14q-7 -13 -39.5 -46t-52.5 -47q-7 -5 -7 -2t7 10q10 10 31.5 38t24.5 35q2 4 12 17q3 5 7 11t6 10.5t1 4.5q-4 0 -33 -35q-10 -13 -58 -45 q-11 -7 -43 -7q-31 0 -46 5q-19 7 -75 7q-25 0 -30 -3q-12 -7 -2 -20q5 -5 12 -19q4 -8 28 -38.5t28 -37.5q10 -14 16 -20q8 -8 8 -9l12 -16q7 -8 18.5 -26t16.5 -25q9 -12 13 -19q6 -12 10 -16q9 -11 62 -111q25 -45 38 -78q9 -23 14 -33q5 -8 9 -26.5t8 -25.5 q1 -2 6.5 -22.5t8.5 -22.5q2 -1 3 -5t0.5 -7.5t-2.5 -3.5q-3 0 -10.5 15t-7.5 20q0 4 -29 61.5t-41 79.5q-4 7 -15 24t-14 22q-15 22 -15 26t-9 13q-5 5 -13 19t-14 20q-2 1 -19 24q-25 34 -90.5 92.5t-107.5 85.5q-21 14 -24 17q-7 7 -19 13q-19 10 -25 14q-11 8 -20 12 q-14 7 -14 12q0 7 27 10q62 4 107 15q100 24 123 36q6 3 25 9.5t27 12.5q12 8 15 8q5 0 30 12t31 17q6 4 15 9q12 5 39 25t45 37zM153 14q0 21 4 34t4 36q0 30 -12 71q-9 35 -33 96q-8 21 -13.5 32.5t-13.5 31.5q-11 28 -14 31t-10 19.5t-7 20.5q0 2 2 2t16.5 -22.5 t16.5 -28.5t8 -12q15 -19 27 -42q5 -8 15 -27t13 -24q23 -41 43 -91q2 -5 7 -16.5t6 -14.5t3.5 -13t4 -21t3.5 -30l2 -25l14 -14q15 -15 39 -27q26 -12 34 -12t19 12l-10 21q-10 20 -28 48.5t-25 41.5q-19 34 -27 47q-19 28 -19 37q0 3 17.5 -13.5t41 -38.5t32.5 -28 q3 -2 19.5 -14t23.5 -16t23.5 -21t18.5 -23q1 -3 4 -18.5t4 -18.5q4 -6 4 -14t-5 -25q-7 -21 -15 -27q-11 -8 -25 -8q-11 0 -21 5q-22 11 -69 11q-58 0 -86 19q-5 3 -22 24l-14 18v27zM501 372q4 1 18 1q29 0 40 -4q24 -7 38 -31q6 -11 6 -32t-8 -32q-6 -9 -15 -17.5 t-12 -8.5q-1 0 -3 -7q-3 -13 -33 -13q-2 0 -7 0.5t-8 0.5q-24 1 -35 8q-29 18 -36 36q-4 12 -4 28q0 15 3 22q5 15 22.5 30t33.5 19z" />
  </symbol>


  <symbol id="u" viewBox="0 0 24 24">
    <path d="M548 590q7 4 12 4q9 0 9 -10q0 -7 -5 -15q-18 -36 -69.5 -73t-123.5 -66q-23 -10 -29 -10q-2 0 -2 1q0 2 17 14q18 13 36 27q12 10 14.5 13.5t2.5 11.5v12l-35 -2q-97 -5 -122 -8t-46 -13q-33 -17 -53 -56q-13 -26 -13 -46q0 -19 10 -29q12 -14 66 -14q27 0 89 5 q51 5 98 5q52 0 78 -12q40 -22 59 -72q7 -21 8 -57v-20q0 -19 -3 -19q-4 0 -5 18q-5 49 -32.5 81.5t-70.5 39.5q-14 2 -21 2q-36 0 -130 -28q-87 -26 -124 -26q-49 0 -77 31t-28 78q0 52 34 104q10 15 31 35t35 28q49 28 125 28q52 0 119 -10l34 -5l14 7q25 10 55 15 q10 1 22 14q11 13 21 17zM721 479q13 7 18 7q2 0 2 -2q0 -4 -19 -28q-78 -94 -78 -150q0 -7 2 -19q2 -14 10 0q1 1 2 3q20 38 76 57q15 5 19 5q2 0 2 -2q0 -3 -20 -23q-50 -47 -63 -97q-5 -16 -5 -42q0 -44 16 -88.5t35 -61.5q12 -12 12 -13q0 -2 -59 -4q-62 -2 -83 -6 q-90 -15 -262 -78q-158 -57 -190 -57q-7 0 -19 2q-49 13 -49 55q0 6 2 18q12 56 90 154q33 42 74.5 85.5t48.5 43.5q2 0 2 -2q0 -4 -13 -26q-28 -49 -28 -83q0 -24 14 -38q10 -10 19 -10q5 0 13 3q12 5 66 42q56 39 63 39q1 0 1 -1q0 -4 -18 -25q-87 -102 -134 -102 q-40 0 -53 45q-5 10 -7 11q-4 -4 -20 -35.5t-21 -47.5q-7 -18 -7 -33q0 -34 47 -34q19 0 35.5 4.5t67.5 25.5q103 41 170 78q35 20 56 29q20 7 98 24l-15 20q-14 19 -21 35q-20 45 -20 94q0 82 46 145q16 22 44.5 46t52.5 37z" />
  </symbol>


  <symbol id="u" viewBox="0 0 24 24">
    <path d="M548 590q7 4 12 4q9 0 9 -10q0 -7 -5 -15q-18 -36 -69.5 -73t-123.5 -66q-23 -10 -29 -10q-2 0 -2 1q0 2 17 14q18 13 36 27q12 10 14.5 13.5t2.5 11.5v12l-35 -2q-97 -5 -122 -8t-46 -13q-33 -17 -53 -56q-13 -26 -13 -46q0 -19 10 -29q12 -14 66 -14q27 0 89 5 q51 5 98 5q52 0 78 -12q40 -22 59 -72q7 -21 8 -57v-20q0 -19 -3 -19q-4 0 -5 18q-5 49 -32.5 81.5t-70.5 39.5q-14 2 -21 2q-36 0 -130 -28q-87 -26 -124 -26q-49 0 -77 31t-28 78q0 52 34 104q10 15 31 35t35 28q49 28 125 28q52 0 119 -10l34 -5l14 7q25 10 55 15 q10 1 22 14q11 13 21 17zM721 479q13 7 18 7q2 0 2 -2q0 -4 -19 -28q-78 -94 -78 -150q0 -7 2 -19q2 -14 10 0q1 1 2 3q20 38 76 57q15 5 19 5q2 0 2 -2q0 -3 -20 -23q-50 -47 -63 -97q-5 -16 -5 -42q0 -44 16 -88.5t35 -61.5q12 -12 12 -13q0 -2 -59 -4q-62 -2 -83 -6 q-90 -15 -262 -78q-158 -57 -190 -57q-7 0 -19 2q-49 13 -49 55q0 6 2 18q12 56 90 154q33 42 74.5 85.5t48.5 43.5q2 0 2 -2q0 -4 -13 -26q-28 -49 -28 -83q0 -24 14 -38q10 -10 19 -10q5 0 13 3q12 5 66 42q56 39 63 39q1 0 1 -1q0 -4 -18 -25q-87 -102 -134 -102 q-40 0 -53 45q-5 10 -7 11q-4 -4 -20 -35.5t-21 -47.5q-7 -18 -7 -33q0 -34 47 -34q19 0 35.5 4.5t67.5 25.5q103 41 170 78q35 20 56 29q20 7 98 24l-15 20q-14 19 -21 35q-20 45 -20 94q0 82 46 145q16 22 44.5 46t52.5 37z" />
  </symbol>


  <symbol id="v" viewBox="0 0 24 24">
    <path d="M669 135q0 -2 9 -4t9 -3q0 -2 -24.5 -11t-38.5 -11q-15 -2 -15 -3t4 -3h1q27 -11 67 -11q3 0 11 0.5t12 0.5q42 2 44 7q1 5 9 3q3 -1 26 -3l18 -2l-10 -5q-58 -25 -129 -25q-61 0 -103 33q-9 7 -19 20t-10 17t49 17q52 13 81 30t53 49q38 49 50 121q4 21 4 49 q0 100 -73 190q-29 34 -66 49q-21 8 -21 10l1 1q4 0 27 -10q30 -12 31 -12t-5 6q-23 20 -65 34.5t-83 14.5h-11q-20 -1 -42.5 -5.5t-22.5 -7.5l25 -9q25 -10 25 -11q0 -2 -30 -6q-62 -11 -62 -15q0 -1 28 -10q76 -25 130.5 -75t69.5 -119q2 -12 2 -22q0 -34 -8 -53 q-4 -13 -7 -13v2q0 9 2 17q1 6 1 17q0 25 -15 69q-26 72 -71 96q-13 7 -13 10h1q5 0 14 -4l12 -5l-10 9q-11 9 -38 22.5t-46 18.5q-37 10 -69 10q-66 0 -111 -45q-10 -10 -12 -10q-3 0 20 29q95 115 219 141q25 5 51 5q21 0 45 -4q84 -19 163.5 -102.5t105.5 -179.5 q7 -24 7 -62q0 -55 -22 -100q-42 -82 -154 -127q-21 -9 -21 -10zM359 520q0 2 3 0q2 -3 9 -34t11 -55q5 -37 5 -84q0 -43 -5 -71q-10 -51 -29 -86.5t-69 -93.5l-30 -35q28 -18 94.5 -55t81.5 -43q45 -21 111 -21q88 0 160 36l31 15l18 -2h9q12 0 24 6q14 6 30.5 17.5 t24.5 18t31 27.5t26 24q41 37 47 37q0 -3 -11 -17q-37 -46 -120 -116q-65 -55 -69 -59q-31 -28 -50.5 -34.5t-76.5 -8.5h-17q-94 0 -103 7q-2 1 -22 3q-58 5 -162 74q-51 34 -81 49q-46 23 -68 23q-6 0 -6 2q0 4 19 19q36 28 73 70t55 75l9 16l-11 -8q-30 -23 -59 -35 q-21 -8 -22 -7q-2 2 13 14q27 22 48 54q4 6 0 3q-3 -3 -9 -8q-56 -49 -98 -56q-12 -2 -15 -2q-5 0 -17 3q-45 13 -74 57q-10 14 -10 19q0 1 1 1q3 0 11 -8q46 -45 95 -45q35 0 71 24q86 57 112 196q11 66 11 94z" />
  </symbol>


  <symbol id="v" viewBox="0 0 24 24">
    <path d="M669 135q0 -2 9 -4t9 -3q0 -2 -24.5 -11t-38.5 -11q-15 -2 -15 -3t4 -3h1q27 -11 67 -11q3 0 11 0.5t12 0.5q42 2 44 7q1 5 9 3q3 -1 26 -3l18 -2l-10 -5q-58 -25 -129 -25q-61 0 -103 33q-9 7 -19 20t-10 17t49 17q52 13 81 30t53 49q38 49 50 121q4 21 4 49 q0 100 -73 190q-29 34 -66 49q-21 8 -21 10l1 1q4 0 27 -10q30 -12 31 -12t-5 6q-23 20 -65 34.5t-83 14.5h-11q-20 -1 -42.5 -5.5t-22.5 -7.5l25 -9q25 -10 25 -11q0 -2 -30 -6q-62 -11 -62 -15q0 -1 28 -10q76 -25 130.5 -75t69.5 -119q2 -12 2 -22q0 -34 -8 -53 q-4 -13 -7 -13v2q0 9 2 17q1 6 1 17q0 25 -15 69q-26 72 -71 96q-13 7 -13 10h1q5 0 14 -4l12 -5l-10 9q-11 9 -38 22.5t-46 18.5q-37 10 -69 10q-66 0 -111 -45q-10 -10 -12 -10q-3 0 20 29q95 115 219 141q25 5 51 5q21 0 45 -4q84 -19 163.5 -102.5t105.5 -179.5 q7 -24 7 -62q0 -55 -22 -100q-42 -82 -154 -127q-21 -9 -21 -10zM359 520q0 2 3 0q2 -3 9 -34t11 -55q5 -37 5 -84q0 -43 -5 -71q-10 -51 -29 -86.5t-69 -93.5l-30 -35q28 -18 94.5 -55t81.5 -43q45 -21 111 -21q88 0 160 36l31 15l18 -2h9q12 0 24 6q14 6 30.5 17.5 t24.5 18t31 27.5t26 24q41 37 47 37q0 -3 -11 -17q-37 -46 -120 -116q-65 -55 -69 -59q-31 -28 -50.5 -34.5t-76.5 -8.5h-17q-94 0 -103 7q-2 1 -22 3q-58 5 -162 74q-51 34 -81 49q-46 23 -68 23q-6 0 -6 2q0 4 19 19q36 28 73 70t55 75l9 16l-11 -8q-30 -23 -59 -35 q-21 -8 -22 -7q-2 2 13 14q27 22 48 54q4 6 0 3q-3 -3 -9 -8q-56 -49 -98 -56q-12 -2 -15 -2q-5 0 -17 3q-45 13 -74 57q-10 14 -10 19q0 1 1 1q3 0 11 -8q46 -45 95 -45q35 0 71 24q86 57 112 196q11 66 11 94z" />
  </symbol>


  <symbol id="w" viewBox="0 0 24 24">
    <path d="M86 734q9 -2 53 -7q44 -6 133 -35q120 -40 191 -43q5 0 13.5 -0.5t11.5 -0.5q31 0 79 14q173 50 279 50h18q32 -1 48 -9q15 -8 20 -16.5t5 -28.5q0 -85 -91 -176q-26 -26 -56 -49q-58 -41 -143 -71q-85 -29 -125 -29q-6 0 -7 1q-2 2 -2 3q0 6 51 29q88 40 127 64.5 t80 65.5q60 61 78 88t18 54q0 25 -15 25q-14 0 -55 -18q-17 -8 -167 -69q-79 -31 -142 -31q-82 0 -180 49q-38 19 -101 55t-88 50q-60 31 -60 37q1 1 9 0.5t18 -2.5zM187 438q27 30 62 30t63 -27q21 -19 47 -76q42 -93 89 -114q58 -27 182 -30h20q140 0 259 35q20 6 20 4 q1 -2 -7 -7q-31 -22 -71.5 -61t-54.5 -66q-21 -38 -61 -89q-30 -37 -75 -74q-30 -25 -72.5 -49t-68.5 -31q-22 -6 -26 -8q-2 0 -5.5 -1.5t-4.5 -1.5q-9 0 108 108q63 60 84 82q67 74 67 106q0 8 -9 8q-7 0 -28 -7q-99 -37 -145 -37q-33 0 -62 11.5t-71 40.5q-40 27 -64 52.5 t-51 66.5q-42 62 -56 66q-1 0 -2.5 0.5t-2.5 0.5q-13 0 -35 -20q-33 -33 -33 -86q0 -84 79 -198q26 -37 65 -83q40 -47 40 -50q0 -2 -14 6.5t-32.5 21t-30.5 21.5q-64 51 -104 107q-39 53 -53 103q-8 28 -8 66q0 51 16.5 99.5t45.5 80.5zM862 76q12 2 37 2q21 -1 29 -5 t19 -18q8 -10 8 -31q0 -20 -9 -30q-19 -23 -49 -26h-8q-17 0 -41 20q-22 21 -22 36q0 8 8 21q8 12 8 14q0 13 20 17z" />
  </symbol>


  <symbol id="w" viewBox="0 0 24 24">
    <path d="M86 734q9 -2 53 -7q44 -6 133 -35q120 -40 191 -43q5 0 13.5 -0.5t11.5 -0.5q31 0 79 14q173 50 279 50h18q32 -1 48 -9q15 -8 20 -16.5t5 -28.5q0 -85 -91 -176q-26 -26 -56 -49q-58 -41 -143 -71q-85 -29 -125 -29q-6 0 -7 1q-2 2 -2 3q0 6 51 29q88 40 127 64.5 t80 65.5q60 61 78 88t18 54q0 25 -15 25q-14 0 -55 -18q-17 -8 -167 -69q-79 -31 -142 -31q-82 0 -180 49q-38 19 -101 55t-88 50q-60 31 -60 37q1 1 9 0.5t18 -2.5zM187 438q27 30 62 30t63 -27q21 -19 47 -76q42 -93 89 -114q58 -27 182 -30h20q140 0 259 35q20 6 20 4 q1 -2 -7 -7q-31 -22 -71.5 -61t-54.5 -66q-21 -38 -61 -89q-30 -37 -75 -74q-30 -25 -72.5 -49t-68.5 -31q-22 -6 -26 -8q-2 0 -5.5 -1.5t-4.5 -1.5q-9 0 108 108q63 60 84 82q67 74 67 106q0 8 -9 8q-7 0 -28 -7q-99 -37 -145 -37q-33 0 -62 11.5t-71 40.5q-40 27 -64 52.5 t-51 66.5q-42 62 -56 66q-1 0 -2.5 0.5t-2.5 0.5q-13 0 -35 -20q-33 -33 -33 -86q0 -84 79 -198q26 -37 65 -83q40 -47 40 -50q0 -2 -14 6.5t-32.5 21t-30.5 21.5q-64 51 -104 107q-39 53 -53 103q-8 28 -8 66q0 51 16.5 99.5t45.5 80.5zM862 76q12 2 37 2q21 -1 29 -5 t19 -18q8 -10 8 -31q0 -20 -9 -30q-19 -23 -49 -26h-8q-17 0 -41 20q-22 21 -22 36q0 8 8 21q8 12 8 14q0 13 20 17z" />
  </symbol>


  <symbol id="x" viewBox="0 0 24 24">
    <path d="M644 521q14 22 19 22q3 0 3 -10q0 -9 -5 -44q-18 -127 -22 -250q-2 -55 -5 -55q-2 0 -4 33q-4 62 -12 143t-11 84h-1q-6 0 -27.5 -12.5t-31.5 -21.5q-27 -27 -27 -55q0 -18 11 -46q9 -27 6 -27q-4 0 -13 10t-15 21q-15 28 -15 58q0 19 6 34q7 17 21 29t48 29q38 19 50 29 q14 12 25 29zM96 506q3 6 6 6q6 0 12 -29q4 -21 12 -42q13 -34 45 -62.5t75 -44.5q17 -7 57 -15.5t52 -8.5q28 0 93 -24q37 -14 76.5 -36t39.5 -29q0 -4 -11 -15q-10 -10 -24 -10q-9 0 -49 8q-60 12 -93 12q-19 0 -30 -1q-95 -6 -147.5 -30.5t-77.5 -75.5q-18 -36 -18 -72 q0 -27 10 -51q20 -49 73 -76q27 -13 27 -16q0 -4 -12 -4q-6 0 -26 4q-38 10 -74 45q-56 56 -56 131q0 41 19 68q24 36 76 64.5t114 39.5q40 7 123 7q23 0 30 -1q5 0 11 -0.5t9 -1t5 -0.5q3 0 3 1l-4 3q-10 5 -39 16t-36 12q-60 12 -79 12q-36 0 -84 14q-90 26 -116 82 q-7 15 -7 48q0 50 15 72zM582 188q0 2 3 2q16 0 46 -26q40 -37 40 -107q0 -33 -11 -55q-14 -29 -43.5 -47t-62.5 -18h-7q-73 4 -121 85q-26 43 -42.5 61.5t-41.5 31.5q-15 8 -40 8q-23 0 -40 -8q-57 -27 -63 -105q-1 -24 -6 -24t-7 40v14q0 59 41 99q43 43 102 43 q35 0 66 -22q15 -10 23.5 -24t27.5 -53q25 -52 49 -76t55 -26h9q26 0 48 19q15 14 20 26t5 37q0 35 -10 58t-32 52q-8 10 -8 15z" />
  </symbol>


  <symbol id="x" viewBox="0 0 24 24">
    <path d="M644 521q14 22 19 22q3 0 3 -10q0 -9 -5 -44q-18 -127 -22 -250q-2 -55 -5 -55q-2 0 -4 33q-4 62 -12 143t-11 84h-1q-6 0 -27.5 -12.5t-31.5 -21.5q-27 -27 -27 -55q0 -18 11 -46q9 -27 6 -27q-4 0 -13 10t-15 21q-15 28 -15 58q0 19 6 34q7 17 21 29t48 29q38 19 50 29 q14 12 25 29zM96 506q3 6 6 6q6 0 12 -29q4 -21 12 -42q13 -34 45 -62.5t75 -44.5q17 -7 57 -15.5t52 -8.5q28 0 93 -24q37 -14 76.5 -36t39.5 -29q0 -4 -11 -15q-10 -10 -24 -10q-9 0 -49 8q-60 12 -93 12q-19 0 -30 -1q-95 -6 -147.5 -30.5t-77.5 -75.5q-18 -36 -18 -72 q0 -27 10 -51q20 -49 73 -76q27 -13 27 -16q0 -4 -12 -4q-6 0 -26 4q-38 10 -74 45q-56 56 -56 131q0 41 19 68q24 36 76 64.5t114 39.5q40 7 123 7q23 0 30 -1q5 0 11 -0.5t9 -1t5 -0.5q3 0 3 1l-4 3q-10 5 -39 16t-36 12q-60 12 -79 12q-36 0 -84 14q-90 26 -116 82 q-7 15 -7 48q0 50 15 72zM582 188q0 2 3 2q16 0 46 -26q40 -37 40 -107q0 -33 -11 -55q-14 -29 -43.5 -47t-62.5 -18h-7q-73 4 -121 85q-26 43 -42.5 61.5t-41.5 31.5q-15 8 -40 8q-23 0 -40 -8q-57 -27 -63 -105q-1 -24 -6 -24t-7 40v14q0 59 41 99q43 43 102 43 q35 0 66 -22q15 -10 23.5 -24t27.5 -53q25 -52 49 -76t55 -26h9q26 0 48 19q15 14 20 26t5 37q0 35 -10 58t-32 52q-8 10 -8 15z" />
  </symbol>


  <symbol id="z" viewBox="0 0 24 24">
    <path d="M182 618q0 3 9 3q24 0 41 -11q96 -60 258 -109q143 -45 172 -147q6 -21 6 -45q0 -34 -12 -58q-9 -18 -28.5 -37.5t-37.5 -28.5q-34 -17 -68 -21t-154 -4q-127 0 -156.5 -5t-56.5 -32q-29 -28 -29 -66q0 -50 46 -73q24 -11 48 -11q65 0 163 79q22 18 22 12q0 -7 -24.5 -38 t-53.5 -60q-25 -26 -62.5 -56.5t-44.5 -30.5q-3 0 -15 12q-23 26 -81 59q-67 38 -67 104q0 36 23.5 72t57.5 52q33 15 130 15q39 0 63 -1q26 -1 65 -1q48 0 73 4.5t56 19.5q34 15 63.5 49.5t29.5 57.5q0 14 -13.5 39.5t-28.5 39.5q-39 35 -81 35q-20 0 -33 -9.5t-13 -25.5 q0 -13 9 -29q8 -16 8 -22q0 -7 -8 -7q-5 0 -8 1q-7 2 -27.5 21t-49.5 48.5t-55 57t-55 58.5t-39 41q-42 44 -42 48zM177 445q16 9 28 9q11 0 22 -8t11 -15t9 -25q7 -13 7 -21q0 -2 -2 -14q-12 -46 -50 -46q-25 0 -48 23q-12 12 -15 18.5t-3 19.5q0 38 41 59zM565 72 q44 33 57 33q6 0 6 -8t-43 -46q-39 -34 -53.5 -49.5t-24.5 -34.5q-9 -17 -9 -26q0 -15 21 -15q17 0 47 9q29 8 56 8q23 0 40 -1q132 -8 132 -33q0 -3 -1 -5q-1 -6 -8 -6q-5 0 -48 9q-15 4 -45 4q-4 0 -13 -0.5t-14 -0.5q-34 -2 -75 -9.5t-48 -12.5q-2 -1 -23.5 -7.5 t-53.5 -12.5t-53 -6q-34 0 -34 16q0 20 63 85.5t124 108.5z" />
  </symbol>


  <symbol id="z" viewBox="0 0 24 24">
    <path d="M182 618q0 3 9 3q24 0 41 -11q96 -60 258 -109q143 -45 172 -147q6 -21 6 -45q0 -34 -12 -58q-9 -18 -28.5 -37.5t-37.5 -28.5q-34 -17 -68 -21t-154 -4q-127 0 -156.5 -5t-56.5 -32q-29 -28 -29 -66q0 -50 46 -73q24 -11 48 -11q65 0 163 79q22 18 22 12q0 -7 -24.5 -38 t-53.5 -60q-25 -26 -62.5 -56.5t-44.5 -30.5q-3 0 -15 12q-23 26 -81 59q-67 38 -67 104q0 36 23.5 72t57.5 52q33 15 130 15q39 0 63 -1q26 -1 65 -1q48 0 73 4.5t56 19.5q34 15 63.5 49.5t29.5 57.5q0 14 -13.5 39.5t-28.5 39.5q-39 35 -81 35q-20 0 -33 -9.5t-13 -25.5 q0 -13 9 -29q8 -16 8 -22q0 -7 -8 -7q-5 0 -8 1q-7 2 -27.5 21t-49.5 48.5t-55 57t-55 58.5t-39 41q-42 44 -42 48zM177 445q16 9 28 9q11 0 22 -8t11 -15t9 -25q7 -13 7 -21q0 -2 -2 -14q-12 -46 -50 -46q-25 0 -48 23q-12 12 -15 18.5t-3 19.5q0 38 41 59zM565 72 q44 33 57 33q6 0 6 -8t-43 -46q-39 -34 -53.5 -49.5t-24.5 -34.5q-9 -17 -9 -26q0 -15 21 -15q17 0 47 9q29 8 56 8q23 0 40 -1q132 -8 132 -33q0 -3 -1 -5q-1 -6 -8 -6q-5 0 -48 9q-15 4 -45 4q-4 0 -13 -0.5t-14 -0.5q-34 -2 -75 -9.5t-48 -12.5q-2 -1 -23.5 -7.5 t-53.5 -12.5t-53 -6q-34 0 -34 16q0 20 63 85.5t124 108.5z" />
  </symbol>

</svg>
